<svg width="153" height="60" fill="none" xmlns="http://www.w3.org/2000/svg"><rect width="153" height="60" rx="30" fill="#000"/><path d="M50.71 37V23.91h1.975v5.688h6.526v-5.689h1.982V37H59.21v-5.708h-6.526V37H50.71Zm16.063.217a4.009 4.009 0 0 1-1.688-.345 2.843 2.843 0 0 1-1.195-1.016c-.29-.443-.435-.987-.435-1.63 0-.554.107-1.01.32-1.368.213-.358.5-.641.863-.85a4.505 4.505 0 0 1 1.215-.473c.447-.107.903-.188 1.367-.243l1.432-.166c.367-.047.633-.122.8-.224.165-.102.249-.268.249-.499v-.044c0-.559-.158-.991-.473-1.298-.312-.307-.776-.46-1.394-.46-.644 0-1.15.143-1.521.428-.367.281-.62.595-.761.94l-1.796-.41c.213-.596.524-1.078.933-1.444.414-.37.889-.64 1.426-.805a5.564 5.564 0 0 1 1.693-.256c.392 0 .808.047 1.247.14.443.09.856.256 1.24.5.388.242.705.59.952 1.041.248.448.371 1.03.371 1.745V37h-1.866v-1.342h-.077c-.124.247-.31.49-.556.728a2.954 2.954 0 0 1-.953.595c-.387.157-.852.236-1.393.236Zm.415-1.534c.529 0 .98-.104 1.355-.313.38-.209.667-.481.863-.818.2-.341.3-.705.3-1.093v-1.266c-.067.068-.2.132-.395.192a6.181 6.181 0 0 1-.659.147c-.247.038-.488.075-.722.109l-.588.076a4.74 4.74 0 0 0-1.016.237c-.303.11-.546.27-.73.48-.178.204-.268.477-.268.817 0 .473.175.831.525 1.074.349.239.794.358 1.335.358Zm6.394-1.278h1.956c.026.4.207.71.543.927.341.217.782.326 1.323.326.55 0 1.019-.117 1.407-.352.387-.238.581-.607.581-1.106 0-.298-.074-.558-.223-.78a1.42 1.42 0 0 0-.62-.524 2.2 2.2 0 0 0-.94-.185h-1.598v-1.502h1.598c.541 0 .946-.124 1.215-.37.268-.248.402-.557.402-.928 0-.4-.145-.722-.434-.965-.286-.247-.684-.37-1.196-.37-.52 0-.952.116-1.297.35-.346.231-.527.53-.544.896h-1.93a2.39 2.39 0 0 1 .498-1.445c.324-.418.759-.741 1.305-.971.55-.235 1.174-.352 1.872-.352.729 0 1.36.117 1.892.352.533.234.944.558 1.234.971.294.414.441.889.441 1.426 0 .54-.162.984-.486 1.33-.32.34-.737.585-1.252.734v.102c.379.026.715.141 1.01.346.293.204.524.475.69.811.166.337.25.718.25 1.145 0 .6-.167 1.12-.5 1.56-.328.438-.784.777-1.367 1.016-.58.234-1.243.351-1.988.351-.725 0-1.375-.113-1.95-.339-.57-.23-1.025-.554-1.361-.971a2.463 2.463 0 0 1-.531-1.483Zm12.527 2.812a4.01 4.01 0 0 1-1.688-.345 2.844 2.844 0 0 1-1.195-1.016c-.29-.443-.435-.987-.435-1.63 0-.554.107-1.01.32-1.368.213-.358.5-.641.863-.85a4.505 4.505 0 0 1 1.214-.473 12.08 12.08 0 0 1 1.368-.243l1.432-.166c.367-.047.633-.122.8-.224.165-.102.248-.268.248-.499v-.044c0-.559-.157-.991-.473-1.298-.31-.307-.775-.46-1.393-.46-.644 0-1.15.143-1.521.428-.367.281-.62.595-.761.94l-1.796-.41c.213-.596.524-1.078.933-1.444.413-.37.888-.64 1.425-.805a5.563 5.563 0 0 1 1.694-.256c.392 0 .808.047 1.247.14.443.09.856.256 1.24.5.388.242.705.59.952 1.041.247.448.371 1.03.371 1.745V37h-1.866v-1.342h-.077c-.124.247-.31.49-.556.728a2.953 2.953 0 0 1-.953.595c-.387.157-.852.236-1.393.236Zm.415-1.534c.529 0 .98-.104 1.355-.313.38-.209.667-.481.863-.818.2-.341.3-.705.3-1.093v-1.266c-.067.068-.2.132-.395.192a6.183 6.183 0 0 1-.659.147c-.247.038-.488.075-.722.109l-.588.076a4.74 4.74 0 0 0-1.017.237c-.302.11-.545.27-.728.48-.18.204-.269.477-.269.817 0 .473.175.831.524 1.074.35.239.795.358 1.336.358Zm6.017 4.149v-4.488h.799c.204-.187.377-.41.518-.67.144-.26.266-.57.364-.928.102-.358.187-.775.256-1.252.068-.482.128-1.032.179-1.65l.306-3.662h6.674v8.162h1.508v4.488h-1.866V37h-6.846v2.832H92.54Zm2.844-4.488h4.385v-6.526h-3.093l-.205 2.026a27.683 27.683 0 0 1-.37 2.685c-.15.754-.389 1.36-.717 1.815Z" fill="#fff"/></svg>