<svg width="108" height="108" fill="none" xmlns="http://www.w3.org/2000/svg"><g filter="url(#a)"><rect x="24" y="20" width="60" height="60" rx="10" fill="#fff"/></g><path fill-rule="evenodd" clip-rule="evenodd" d="M46 50a1 1 0 0 1 1-1h14a1 1 0 1 1 0 2H47a1 1 0 0 1-1-1Z" fill="#000"/><path fill-rule="evenodd" clip-rule="evenodd" d="M53.293 42.293a1 1 0 0 1 1.414 0l7 7a1 1 0 0 1 0 1.414l-7 7a1 1 0 0 1-1.414-1.414L59.586 50l-6.293-6.293a1 1 0 0 1 0-1.414Z" fill="#000"/><defs><filter id="a" x="0" y="0" width="108" height="108" filterUnits="userSpaceOnUse" color-interpolation-filters="sRGB"><feFlood flood-opacity="0" result="BackgroundImageFix"/><feColorMatrix in="SourceAlpha" values="0 0 0 0 0 0 0 0 0 0 0 0 0 0 0 0 0 0 127 0" result="hardAlpha"/><feOffset dy="4"/><feGaussianBlur stdDeviation="12"/><feComposite in2="hardAlpha" operator="out"/><feColorMatrix values="0 0 0 0 0 0 0 0 0 0 0 0 0 0 0 0 0 0 0.06 0"/><feBlend in2="BackgroundImageFix" result="effect1_dropShadow_7_194"/><feBlend in="SourceGraphic" in2="effect1_dropShadow_7_194" result="shape"/></filter></defs></svg>