<svg width="506" height="136" viewBox="0 0 506 136" fill="none" xmlns="http://www.w3.org/2000/svg">
<path d="M1.63352 133H0.633524V134H1.63352V133ZM1.63352 115.869L0.933482 115.155L0.633524 115.449V115.869H1.63352ZM47.081 71.3168L47.781 72.0309L47.7863 72.0257L47.7915 72.0204L47.081 71.3168ZM64.4673 49.7116L65.3781 50.1245L64.4673 49.7116ZM63.8281 28.8736L62.9815 29.4058L62.985 29.4112L63.8281 28.8736ZM56.0938 21.9702L55.6512 22.8669L56.0938 21.9702ZM33.5938 22.2259L34.0686 23.106L34.0774 23.1011L33.5938 22.2259ZM26.0511 29.7045L25.1758 29.2208L25.171 29.2298L26.0511 29.7045ZM23.4304 41.2741V42.2741H24.4304V41.2741H23.4304ZM0.866478 41.2741H-0.133522V42.2741H0.866478V41.2741ZM6.5554 19.6051L7.40604 20.1309L6.5554 19.6051ZM22.2159 5.35085L21.7664 4.45756L21.7641 4.45872L22.2159 5.35085ZM68.3665 5.22301L68.8091 4.32629L68.3665 5.22301ZM83.8352 18.7102L82.9936 19.2504L82.9965 19.2548L83.8352 18.7102ZM86.5838 52.7159L85.6542 52.3474L86.5838 52.7159ZM76.6761 68.4403L75.9037 67.8052L75.9009 67.8087L76.6761 68.4403ZM56.9247 89.3423L56.2304 88.6227L56.2209 88.6318L56.2117 88.6412L56.9247 89.3423ZM34.3608 112.29L33.6478 111.589L33.3608 111.88V112.29H34.3608ZM34.3608 113.185H33.3608V114.185H34.3608V113.185ZM91.3778 113.185H92.3778V112.185H91.3778V113.185ZM91.3778 133V134H92.3778V133H91.3778ZM2.63352 133V115.869H0.633524V133H2.63352ZM2.33356 116.583L47.781 72.0309L46.3809 70.6027L0.933482 115.155L2.33356 116.583ZM47.7915 72.0204C52.1498 67.6194 55.7904 63.7011 58.7094 60.267L57.1855 58.9717C54.309 62.3558 50.7053 66.2357 46.3704 70.6131L47.7915 72.0204ZM58.7094 60.267C61.6517 56.8054 63.8819 53.4249 65.3781 50.1245L63.5565 49.2988C62.155 52.3904 60.0386 55.6151 57.1855 58.9717L58.7094 60.267ZM65.3781 50.1245C66.8877 46.7946 67.6406 43.2442 67.6406 39.4844H65.6406C65.6406 42.9688 64.9447 46.2367 63.5565 49.2988L65.3781 50.1245ZM67.6406 39.4844C67.6406 35.1961 66.6664 31.4646 64.6713 28.3359L62.985 29.4112C64.7399 32.1632 65.6406 35.5055 65.6406 39.4844H67.6406ZM64.6748 28.3414C62.6975 25.1957 59.9767 22.7713 56.5363 21.0734L55.6512 22.8669C58.7733 24.4077 61.2088 26.5856 62.9815 29.4057L64.6748 28.3414ZM56.5363 21.0734C53.0991 19.3772 49.2155 18.5412 44.9077 18.5412V20.5412C48.9521 20.5412 52.5259 21.3245 55.6512 22.8669L56.5363 21.0734ZM44.9077 18.5412C40.4623 18.5412 36.5193 19.4665 33.1101 21.3506L34.0774 23.1011C37.1454 21.4056 40.7451 20.5412 44.9077 20.5412V18.5412ZM33.119 21.3458C29.7106 23.1845 27.0578 25.8154 25.1759 29.2209L26.9264 30.1882C28.624 27.1164 30.9996 24.7616 34.0685 23.1059L33.119 21.3458ZM25.171 29.2298C23.3299 32.6426 22.4304 36.6694 22.4304 41.2741H24.4304C24.4304 36.93 25.2781 33.2438 26.9312 30.1793L25.171 29.2298ZM23.4304 40.2741H0.866478V42.2741H23.4304V40.2741ZM1.86648 41.2741C1.86648 33.1214 3.72516 26.0864 7.40604 20.1309L5.70476 19.0794C1.80041 25.3965 -0.133522 32.8075 -0.133522 41.2741H1.86648ZM7.40604 20.1309C11.0986 14.1563 16.1784 9.52922 22.6677 6.24298L21.7641 4.45872C14.958 7.90543 9.59738 12.7812 5.70476 19.0794L7.40604 20.1309ZM22.6654 6.24414C29.1961 2.95797 36.7086 1.30113 45.2273 1.30113V-0.698868C36.4448 -0.698868 28.6164 1.01078 21.7664 4.45757L22.6654 6.24414ZM45.2273 1.30113C53.8802 1.30113 61.4369 2.91783 67.9239 6.11972L68.8091 4.32629C62.0006 0.965679 54.1311 -0.698868 45.2273 -0.698868V1.30113ZM67.9239 6.11972C74.4243 9.32825 79.436 13.707 82.9936 19.2503L84.6768 18.1701C80.9049 12.293 75.6041 7.68026 68.8091 4.32629L67.9239 6.11972ZM82.9965 19.2548C86.5905 24.7904 88.3963 31.1182 88.3963 38.2699H90.3963C90.3963 30.7625 88.4947 24.0505 84.674 18.1657L82.9965 19.2548ZM88.3963 38.2699C88.3963 43.0395 87.4845 47.73 85.6542 52.3474L87.5134 53.0844C89.4331 48.2416 90.3963 43.3015 90.3963 38.2699H88.3963ZM85.6542 52.3474C83.8307 56.9475 80.5956 62.099 75.9037 67.8052L77.4486 69.0754C82.217 63.276 85.5869 57.9445 87.5134 53.0844L85.6542 52.3474ZM75.9009 67.8087C71.2488 73.5181 64.6964 80.4545 56.2304 88.6227L57.6191 90.062C66.1133 81.8665 72.7285 74.8682 77.4514 69.072L75.9009 67.8087ZM56.2117 88.6412L33.6478 111.589L35.0738 112.991L57.6378 90.0435L56.2117 88.6412ZM33.3608 112.29V113.185H35.3608V112.29H33.3608ZM34.3608 114.185H91.3778V112.185H34.3608V114.185ZM90.3778 113.185V133H92.3778V113.185H90.3778ZM91.3778 132H1.63352V134H91.3778V132ZM134.716 127.503L134.134 128.316L134.139 128.32L134.716 127.503ZM117.393 104.3L116.463 104.667L116.465 104.672L117.393 104.3ZM111.385 67.6733L110.385 67.6703V67.6733H111.385ZM117.457 31.2386L116.53 30.8652L116.529 30.8672L117.457 31.2386ZM134.78 8.22727L134.206 7.40826L134.204 7.40979L134.78 8.22727ZM188.857 8.22727L188.283 9.04629L188.857 8.22727ZM206.179 31.2386L205.25 31.6087L205.251 31.6121L206.179 31.2386ZM206.179 104.364L205.25 103.993L205.249 103.995L206.179 104.364ZM188.857 127.503L188.28 126.686L188.277 126.688L188.857 127.503ZM181.186 103.405L180.325 102.897L180.324 102.898L181.186 103.405ZM185.085 41.4659L186.041 41.1722L185.085 41.4659ZM175.881 25.4858L175.206 26.224L175.21 26.2279L175.881 25.4858ZM142.514 32.1974L143.376 32.7039L143.378 32.7019L142.514 32.1974ZM135.355 67.6733L136.355 67.6774L136.355 67.676L135.355 67.6733ZM138.487 94.0085L137.529 94.2953L137.531 94.3006L138.487 94.0085ZM147.692 110.116L147.017 110.855L147.021 110.859L147.692 110.116ZM161.818 134.493C151.469 134.493 142.644 131.877 135.293 126.686L134.139 128.32C141.873 133.782 151.116 136.493 161.818 136.493V134.493ZM135.298 126.69C127.979 121.45 122.312 113.882 118.322 103.928L116.465 104.672C120.572 114.916 126.453 122.817 134.134 128.316L135.298 126.69ZM118.324 103.932C114.376 93.9373 112.385 81.86 112.385 67.6733H110.385C110.385 82.0377 112.4 94.3781 116.463 104.667L118.324 103.932ZM112.385 67.6763C112.427 53.4883 114.44 41.4759 118.386 31.61L116.529 30.8672C112.464 41.0298 110.428 53.3071 110.385 67.6703L112.385 67.6763ZM118.385 31.6121C122.375 21.701 128.04 14.199 135.356 9.04476L134.204 7.40979C126.52 12.8238 120.637 20.6626 116.53 30.8652L118.385 31.6121ZM135.354 9.04629C142.705 3.89582 151.511 1.30113 161.818 1.30113V-0.698868C151.159 -0.698868 141.939 1.99054 134.206 7.40826L135.354 9.04629ZM161.818 1.30113C172.125 1.30113 180.931 3.89582 188.283 9.04629L189.43 7.40826C181.697 1.99054 172.477 -0.698868 161.818 -0.698868V1.30113ZM188.283 9.04629C195.639 14.2001 201.303 21.7005 205.25 31.6087L207.108 30.8686C203.043 20.6631 197.159 12.8226 189.43 7.40826L188.283 9.04629ZM205.251 31.6121C209.239 41.5194 211.251 53.5303 211.251 67.6733H213.251C213.251 53.3504 211.215 41.0715 207.107 30.8652L205.251 31.6121ZM211.251 67.6733C211.251 81.902 209.239 93.9992 205.25 103.993L207.108 104.734C211.215 94.444 213.251 82.081 213.251 67.6733H211.251ZM205.249 103.995C201.302 113.946 195.637 121.49 188.28 126.686L189.433 128.32C197.161 122.862 203.044 114.98 207.109 104.732L205.249 103.995ZM188.277 126.688C180.97 131.877 172.167 134.493 161.818 134.493V136.493C172.52 136.493 181.743 133.782 189.436 128.318L188.277 126.688ZM161.818 116.486C170.411 116.486 177.169 112.219 182.048 103.911L180.324 102.898C175.743 110.698 169.589 114.486 161.818 114.486V116.486ZM182.048 103.913C186.953 95.5909 189.345 83.4697 189.345 67.6733H187.345C187.345 83.3257 184.965 95.0256 180.325 102.897L182.048 103.913ZM189.345 67.6733C189.345 57.213 188.253 48.3711 186.041 41.1722L184.129 41.7596C186.264 48.7085 187.345 57.3382 187.345 67.6733H189.345ZM186.041 41.1722C183.834 33.9895 180.69 28.4822 176.551 24.7437L175.21 26.2279C178.998 29.6485 181.989 34.7946 184.129 41.7596L186.041 41.1722ZM176.555 24.7477C172.406 20.9556 167.478 19.0526 161.818 19.0526V21.0526C166.983 21.0526 171.429 22.7717 175.206 26.2239L176.555 24.7477ZM161.818 19.0526C153.263 19.0526 146.528 23.3452 141.651 31.693L143.378 32.7019C147.961 24.8565 154.095 21.0526 161.818 21.0526V19.0526ZM141.652 31.691C136.791 39.9683 134.398 52.0021 134.355 67.6706L136.355 67.676C136.398 52.1513 138.777 40.5346 143.376 32.7039L141.652 31.691ZM134.355 67.6692C134.312 78.1715 135.361 87.0549 137.529 94.2953L139.445 93.7217C137.352 86.7292 136.313 78.0558 136.355 67.6774L134.355 67.6692ZM137.531 94.3006C139.737 101.525 142.88 107.074 147.017 110.855L148.366 109.378C144.577 105.915 141.584 100.725 139.444 93.7164L137.531 94.3006ZM147.021 110.859C151.173 114.608 156.122 116.486 161.818 116.486V114.486C156.605 114.486 152.137 112.784 148.362 109.374L147.021 110.859ZM286.735 2.0909H287.735V1.0909H286.735V2.0909ZM286.735 133V134H287.735V133H286.735ZM263.02 133H262.02V134H263.02V133ZM263.02 25.1662H264.02V24.1662H263.02V25.1662ZM262.253 25.1662V24.1662H261.961L261.715 24.3235L262.253 25.1662ZM231.635 44.7259H230.635V46.5513L232.174 45.5686L231.635 44.7259ZM231.635 22.9929L231.095 22.1516L230.635 22.4468V22.9929H231.635ZM264.171 2.0909V1.0909H263.877L263.63 1.24957L264.171 2.0909ZM285.735 2.0909V133H287.735V2.0909H285.735ZM286.735 132H263.02V134H286.735V132ZM264.02 133V25.1662H262.02V133H264.02ZM263.02 24.1662H262.253V26.1662H263.02V24.1662ZM261.715 24.3235L231.097 43.8831L232.174 45.5686L262.792 26.0089L261.715 24.3235ZM232.635 44.7259V22.9929H230.635V44.7259H232.635ZM232.176 23.8342L264.711 2.93224L263.63 1.24957L231.095 22.1516L232.176 23.8342ZM264.171 3.0909H286.735V1.0909H264.171V3.0909ZM317.608 108.71H316.608V109.71H317.608V108.71ZM317.608 89.8537L316.763 89.3189L316.608 89.5638V89.8537H317.608ZM373.155 2.0909V1.0909H372.605L372.31 1.5561L373.155 2.0909ZM388.88 2.0909H389.88V1.0909H388.88V2.0909ZM388.88 28.9375V29.9375H389.88V28.9375H388.88ZM379.292 28.9375V27.9375H378.74L378.446 28.4038L379.292 28.9375ZM341.898 88.1918L341.052 87.6581L340.898 87.9026V88.1918H341.898ZM341.898 89.2145H340.898V90.2145H341.898V89.2145ZM419.434 89.2145H420.434V88.2145H419.434V89.2145ZM419.434 108.71V109.71H420.434V108.71H419.434ZM380.059 133H379.059V134H380.059V133ZM380.059 102.957L379.059 102.927L379.059 102.942V102.957H380.059ZM380.314 94.5199L381.314 94.5502L381.314 94.535V94.5199H380.314ZM380.314 2.0909V1.0909H379.314V2.0909H380.314ZM402.686 2.0909H403.686V1.0909H402.686V2.0909ZM402.686 133V134H403.686V133H402.686ZM318.608 108.71V89.8537H316.608V108.71H318.608ZM318.453 90.3885L374 2.62571L372.31 1.5561L316.763 89.3189L318.453 90.3885ZM373.155 3.0909H388.88V1.0909H373.155V3.0909ZM387.88 2.0909V28.9375H389.88V2.0909H387.88ZM388.88 27.9375H379.292V29.9375H388.88V27.9375ZM378.446 28.4038L341.052 87.6581L342.744 88.7254L380.137 29.4712L378.446 28.4038ZM340.898 88.1918V89.2145H342.898V88.1918H340.898ZM341.898 90.2145H419.434V88.2145H341.898V90.2145ZM418.434 89.2145V108.71H420.434V89.2145H418.434ZM419.434 107.71H317.608V109.71H419.434V107.71ZM381.059 133V102.957H379.059V133H381.059ZM381.058 102.988L381.314 94.5502L379.315 94.4896L379.059 102.927L381.058 102.988ZM381.314 94.5199V2.0909H379.314V94.5199H381.314ZM380.314 3.0909H402.686V1.0909H380.314V3.0909ZM401.686 2.0909V133H403.686V2.0909H401.686ZM402.686 132H380.059V134H402.686V132ZM505.055 34.8182H506.055V33.8182H505.055V34.8182ZM505.055 53.8026V54.8026H506.055V53.8026H505.055ZM462.74 53.8026V52.8026H461.74V53.8026H462.74ZM462.74 133V134H463.74V133H462.74ZM440.112 133H439.112V134H440.112V133ZM440.112 34.8182V33.8182H439.112V34.8182H440.112ZM504.055 34.8182V53.8026H506.055V34.8182H504.055ZM505.055 52.8026H462.74V54.8026H505.055V52.8026ZM461.74 53.8026V133H463.74V53.8026H461.74ZM462.74 132H440.112V134H462.74V132ZM441.112 133V34.8182H439.112V133H441.112ZM440.112 35.8182H505.055V33.8182H440.112V35.8182Z" fill="black"/>
</svg>
