<svg width="502" height="136" viewBox="0 0 502 136" fill="none" xmlns="http://www.w3.org/2000/svg">
<path d="M1.63352 133H0.633524V134H1.63352V133ZM1.63352 115.869L0.933482 115.155L0.633524 115.449V115.869H1.63352ZM47.081 71.3168L47.781 72.0309L47.7863 72.0257L47.7915 72.0204L47.081 71.3168ZM64.4673 49.7116L65.3781 50.1245L65.3781 50.1245L64.4673 49.7116ZM63.8281 28.8736L62.9815 29.4058L62.985 29.4112L63.8281 28.8736ZM56.0938 21.9702L55.6512 22.8669L55.6512 22.8669L56.0938 21.9702ZM33.5938 22.2259L34.0686 23.106L34.0774 23.1011L33.5938 22.2259ZM26.0511 29.7045L25.1759 29.2208L25.171 29.2298L26.0511 29.7045ZM23.4304 41.2741V42.2741H24.4304V41.2741H23.4304ZM0.866478 41.2741H-0.133522V42.2741H0.866478V41.2741ZM6.5554 19.6051L7.40604 20.1309L7.40604 20.1309L6.5554 19.6051ZM22.2159 5.35085L21.7664 4.45756L21.7641 4.45872L22.2159 5.35085ZM68.3665 5.22301L68.8091 4.32629L68.8091 4.32629L68.3665 5.22301ZM83.8352 18.7102L82.9936 19.2504L82.9965 19.2548L83.8352 18.7102ZM86.5838 52.7159L85.6542 52.3474L85.6542 52.3474L86.5838 52.7159ZM76.6761 68.4403L75.9037 67.8052L75.9009 67.8087L76.6761 68.4403ZM56.9247 89.3423L56.2304 88.6227L56.2209 88.6318L56.2117 88.6412L56.9247 89.3423ZM34.3608 112.29L33.6478 111.589L33.3608 111.88V112.29H34.3608ZM34.3608 113.185H33.3608V114.185H34.3608V113.185ZM91.3778 113.185H92.3778V112.185H91.3778V113.185ZM91.3778 133V134H92.3778V133H91.3778ZM2.63352 133V115.869H0.633524V133H2.63352ZM2.33356 116.583L47.781 72.0309L46.3809 70.6027L0.933482 115.155L2.33356 116.583ZM47.7915 72.0204C52.1498 67.6194 55.7904 63.7011 58.7094 60.267L57.1855 58.9717C54.309 62.3558 50.7053 66.2357 46.3704 70.6131L47.7915 72.0204ZM58.7094 60.267C61.6517 56.8054 63.8819 53.4249 65.3781 50.1245L63.5566 49.2988C62.155 52.3904 60.0386 55.6151 57.1855 58.9717L58.7094 60.267ZM65.3781 50.1245C66.8877 46.7946 67.6406 43.2442 67.6406 39.4844H65.6406C65.6406 42.9688 64.9447 46.2367 63.5566 49.2988L65.3781 50.1245ZM67.6406 39.4844C67.6406 35.1961 66.6664 31.4646 64.6713 28.3359L62.985 29.4112C64.7399 32.1632 65.6406 35.5055 65.6406 39.4844H67.6406ZM64.6748 28.3414C62.6975 25.1957 59.9767 22.7713 56.5363 21.0734L55.6512 22.8669C58.7733 24.4077 61.2088 26.5856 62.9815 29.4057L64.6748 28.3414ZM56.5363 21.0734C53.0991 19.3772 49.2155 18.5412 44.9077 18.5412V20.5412C48.9521 20.5412 52.5259 21.3245 55.6512 22.8669L56.5363 21.0734ZM44.9077 18.5412C40.4623 18.5412 36.5193 19.4665 33.1101 21.3506L34.0774 23.1011C37.1454 21.4056 40.7451 20.5412 44.9077 20.5412V18.5412ZM33.119 21.3458C29.7106 23.1845 27.0578 25.8154 25.1759 29.2209L26.9264 30.1882C28.624 27.1164 30.9996 24.7615 34.0685 23.106L33.119 21.3458ZM25.171 29.2298C23.3299 32.6426 22.4304 36.6694 22.4304 41.2741H24.4304C24.4304 36.93 25.2781 33.2438 26.9312 30.1793L25.171 29.2298ZM23.4304 40.2741H0.866478V42.2741H23.4304V40.2741ZM1.86648 41.2741C1.86648 33.1214 3.72516 26.0864 7.40604 20.1309L5.70476 19.0794C1.80041 25.3965 -0.133522 32.8075 -0.133522 41.2741H1.86648ZM7.40604 20.1309C11.0986 14.1563 16.1784 9.52922 22.6677 6.24298L21.7641 4.45872C14.958 7.90543 9.59738 12.7812 5.70476 19.0794L7.40604 20.1309ZM22.6654 6.24414C29.1961 2.95796 36.7086 1.30113 45.2273 1.30113V-0.698869C36.4448 -0.698869 28.6164 1.01078 21.7664 4.45757L22.6654 6.24414ZM45.2273 1.30113C53.8802 1.30113 61.4369 2.91783 67.9239 6.11972L68.8091 4.32629C62.0006 0.965681 54.1311 -0.698869 45.2273 -0.698869V1.30113ZM67.9239 6.11972C74.4243 9.32825 79.436 13.707 82.9936 19.2503L84.6768 18.1701C80.9049 12.293 75.6041 7.68026 68.8091 4.32629L67.9239 6.11972ZM82.9965 19.2548C86.5905 24.7904 88.3963 31.1182 88.3963 38.2699H90.3963C90.3963 30.7625 88.4947 24.0505 84.674 18.1657L82.9965 19.2548ZM88.3963 38.2699C88.3963 43.0395 87.4845 47.73 85.6542 52.3474L87.5134 53.0844C89.4331 48.2416 90.3963 43.3014 90.3963 38.2699H88.3963ZM85.6542 52.3474C83.8307 56.9475 80.5955 62.099 75.9037 67.8052L77.4486 69.0754C82.217 63.276 85.5869 57.9445 87.5134 53.0844L85.6542 52.3474ZM75.9009 67.8087C71.2488 73.5181 64.6964 80.4545 56.2304 88.6227L57.6191 90.062C66.1133 81.8665 72.7285 74.8682 77.4514 69.072L75.9009 67.8087ZM56.2117 88.6412L33.6478 111.589L35.0738 112.991L57.6378 90.0435L56.2117 88.6412ZM33.3608 112.29V113.185H35.3608V112.29H33.3608ZM34.3608 114.185H91.3778V112.185H34.3608V114.185ZM90.3778 113.185V133H92.3778V113.185H90.3778ZM91.3778 132H1.63352V134H91.3778V132ZM134.716 127.503L134.134 128.316L134.139 128.32L134.716 127.503ZM117.393 104.3L116.463 104.667L116.465 104.672L117.393 104.3ZM111.385 67.6733L110.385 67.6703V67.6733H111.385ZM117.457 31.2386L116.53 30.8652L116.529 30.8672L117.457 31.2386ZM134.78 8.22727L134.206 7.40826L134.204 7.40979L134.78 8.22727ZM188.857 8.22727L188.283 9.04629L188.283 9.04629L188.857 8.22727ZM206.179 31.2386L205.25 31.6087L205.251 31.6121L206.179 31.2386ZM206.179 104.364L205.25 103.993L205.249 103.995L206.179 104.364ZM188.857 127.503L188.28 126.686L188.277 126.688L188.857 127.503ZM181.186 103.405L180.325 102.897L180.324 102.898L181.186 103.405ZM185.085 41.4659L186.041 41.1722L186.041 41.1722L185.085 41.4659ZM175.881 25.4858L175.206 26.224L175.21 26.2279L175.881 25.4858ZM142.514 32.1974L143.376 32.7039L143.378 32.7019L142.514 32.1974ZM135.355 67.6733L136.355 67.6774L136.355 67.676L135.355 67.6733ZM138.487 94.0085L137.529 94.2953L137.531 94.3006L138.487 94.0085ZM147.692 110.116L147.017 110.855L147.021 110.859L147.692 110.116ZM161.818 134.493C151.469 134.493 142.644 131.877 135.293 126.686L134.139 128.32C141.873 133.782 151.116 136.493 161.818 136.493V134.493ZM135.298 126.69C127.979 121.45 122.312 113.882 118.322 103.928L116.465 104.672C120.572 114.916 126.453 122.817 134.134 128.316L135.298 126.69ZM118.324 103.932C114.376 93.9373 112.385 81.86 112.385 67.6733H110.385C110.385 82.0377 112.4 94.378 116.463 104.667L118.324 103.932ZM112.385 67.6763C112.427 53.4883 114.44 41.4759 118.386 31.61L116.529 30.8672C112.464 41.0298 110.428 53.3071 110.385 67.6703L112.385 67.6763ZM118.385 31.6121C122.375 21.701 128.04 14.199 135.356 9.04476L134.204 7.40979C126.52 12.8238 120.637 20.6626 116.53 30.8652L118.385 31.6121ZM135.354 9.04629C142.705 3.89582 151.511 1.30113 161.818 1.30113V-0.698869C151.159 -0.698869 141.939 1.99054 134.206 7.40826L135.354 9.04629ZM161.818 1.30113C172.125 1.30113 180.931 3.89582 188.283 9.04629L189.43 7.40826C181.697 1.99054 172.477 -0.698869 161.818 -0.698869V1.30113ZM188.283 9.04629C195.639 14.2001 201.303 21.7005 205.25 31.6087L207.108 30.8686C203.043 20.6631 197.159 12.8226 189.43 7.40826L188.283 9.04629ZM205.251 31.6121C209.239 41.5194 211.251 53.5303 211.251 67.6733H213.251C213.251 53.3504 211.215 41.0715 207.107 30.8652L205.251 31.6121ZM211.251 67.6733C211.251 81.902 209.239 93.9992 205.25 103.993L207.108 104.734C211.215 94.444 213.251 82.081 213.251 67.6733H211.251ZM205.249 103.995C201.302 113.946 195.637 121.49 188.28 126.686L189.433 128.32C197.161 122.862 203.044 114.98 207.109 104.732L205.249 103.995ZM188.277 126.688C180.97 131.877 172.167 134.493 161.818 134.493V136.493C172.52 136.493 181.743 133.782 189.436 128.318L188.277 126.688ZM161.818 116.486C170.411 116.486 177.169 112.219 182.048 103.911L180.324 102.898C175.743 110.698 169.589 114.486 161.818 114.486V116.486ZM182.048 103.913C186.953 95.5909 189.345 83.4697 189.345 67.6733H187.345C187.345 83.3257 184.965 95.0256 180.325 102.897L182.048 103.913ZM189.345 67.6733C189.345 57.213 188.253 48.3711 186.041 41.1722L184.129 41.7596C186.264 48.7085 187.345 57.3382 187.345 67.6733H189.345ZM186.041 41.1722C183.834 33.9895 180.69 28.4822 176.551 24.7437L175.21 26.2279C178.998 29.6485 181.989 34.7946 184.129 41.7596L186.041 41.1722ZM176.555 24.7477C172.406 20.9556 167.478 19.0526 161.818 19.0526V21.0526C166.983 21.0526 171.429 22.7717 175.206 26.2239L176.555 24.7477ZM161.818 19.0526C153.263 19.0526 146.528 23.3452 141.651 31.693L143.378 32.7019C147.961 24.8565 154.095 21.0526 161.818 21.0526V19.0526ZM141.652 31.691C136.791 39.9683 134.398 52.0021 134.355 67.6706L136.355 67.676C136.398 52.1513 138.778 40.5346 143.376 32.7039L141.652 31.691ZM134.355 67.6692C134.312 78.1715 135.361 87.0549 137.529 94.2953L139.445 93.7217C137.352 86.7292 136.313 78.0558 136.355 67.6774L134.355 67.6692ZM137.531 94.3006C139.737 101.525 142.88 107.074 147.017 110.855L148.366 109.378C144.577 105.915 141.584 100.725 139.444 93.7164L137.531 94.3006ZM147.021 110.859C151.173 114.608 156.122 116.486 161.818 116.486V114.486C156.605 114.486 152.137 112.784 148.362 109.374L147.021 110.859ZM286.735 2.09091H287.735V1.09091H286.735V2.09091ZM286.735 133V134H287.735V133H286.735ZM263.02 133H262.02V134H263.02V133ZM263.02 25.1662H264.02V24.1662H263.02V25.1662ZM262.253 25.1662V24.1662H261.961L261.715 24.3235L262.253 25.1662ZM231.635 44.7259H230.635V46.5513L232.174 45.5686L231.635 44.7259ZM231.635 22.9929L231.095 22.1516L230.635 22.4468V22.9929H231.635ZM264.171 2.09091V1.09091H263.877L263.63 1.24957L264.171 2.09091ZM285.735 2.09091V133H287.735V2.09091H285.735ZM286.735 132H263.02V134H286.735V132ZM264.02 133V25.1662H262.02V133H264.02ZM263.02 24.1662H262.253V26.1662H263.02V24.1662ZM261.715 24.3235L231.097 43.8831L232.174 45.5686L262.792 26.0089L261.715 24.3235ZM232.635 44.7259V22.9929H230.635V44.7259H232.635ZM232.176 23.8342L264.711 2.93224L263.63 1.24957L231.095 22.1516L232.176 23.8342ZM264.171 3.09091H286.735V1.09091H264.171V3.09091ZM341.195 129.996L340.795 130.912L340.797 130.913L341.195 129.996ZM323.936 116.892L323.133 117.487L323.138 117.494L323.936 116.892ZM317.8 97.9077L318.8 97.9137L318.8 97.8999L317.8 97.9077ZM321.38 82.7585L322.264 83.2253L322.264 83.2253L321.38 82.7585ZM331.223 71.2528L331.819 72.0558L331.821 72.0548L331.223 71.2528ZM345.158 65.3082L345.322 66.2946L346.158 66.1554V65.3082H345.158ZM345.158 64.4134H346.158V63.6106L345.374 63.437L345.158 64.4134ZM328.794 54.1222L328 54.7292L328.005 54.7361L328.794 54.1222ZM322.658 35.3935L323.658 35.3995L323.658 35.3871L322.658 35.3935ZM328.283 17.3679L329.095 17.951L329.095 17.951L328.283 17.3679ZM343.88 4.90341L344.296 5.81258L344.301 5.81033L343.88 4.90341ZM388.944 4.90341L388.52 5.80932L388.527 5.81256L388.944 4.90341ZM404.54 17.3679L403.728 17.951L403.731 17.9553L404.54 17.3679ZM403.965 54.1222L403.176 53.5074L403.175 53.5082L403.965 54.1222ZM387.793 64.4134L387.573 63.4379L386.793 63.614V64.4134H387.793ZM387.793 65.3082H386.793V66.1554L387.629 66.2946L387.793 65.3082ZM401.6 71.2528L400.994 72.0489L401.004 72.0558L401.6 71.2528ZM411.444 82.7585L410.559 83.2253L410.563 83.2316L411.444 82.7585ZM408.887 116.892L409.685 117.494L409.687 117.491L408.887 116.892ZM391.628 129.996L391.228 129.079L391.227 129.08L391.628 129.996ZM379.292 114.016L379.709 114.925L379.717 114.92L379.292 114.016ZM390.797 96.2457L391.797 96.2564L391.797 96.246L391.797 96.2355L390.797 96.2457ZM387.537 85.1875L386.697 85.7294L386.701 85.7358L386.705 85.7422L387.537 85.1875ZM378.908 77.581L378.457 78.4733L378.461 78.4754L378.908 77.581ZM353.979 77.581L354.426 78.4754L354.426 78.4754L353.979 77.581ZM345.286 85.1875L344.45 84.6379L344.449 84.6406L345.286 85.1875ZM342.218 96.2457L343.218 96.2564L343.218 96.246L343.218 96.2355L342.218 96.2457ZM345.158 106.857L344.321 107.403L344.324 107.409L345.158 106.857ZM353.596 113.952L353.17 114.857L353.174 114.858L353.596 113.952ZM377.118 54.4418L376.657 53.5547L376.651 53.5574L377.118 54.4418ZM384.469 47.6662L383.618 47.1407L383.618 47.1407L384.469 47.6662ZM387.218 37.6307L388.218 37.6419L388.218 37.6306L388.218 37.6193L387.218 37.6307ZM384.533 27.7869L383.68 28.3089L383.684 28.3146L384.533 27.7869ZM377.246 21.2031L376.794 22.0951L376.804 22.1L377.246 21.2031ZM355.577 21.2031L356.019 22.1L356.024 22.0976L355.577 21.2031ZM348.29 27.7869L347.437 27.265L347.435 27.2686L348.29 27.7869ZM345.797 37.6307L346.797 37.6419L346.797 37.6306L346.797 37.6193L345.797 37.6307ZM348.354 47.6662L347.498 48.1825L347.502 48.19L347.507 48.1973L348.354 47.6662ZM355.705 54.4418L355.234 55.3238L355.241 55.3276L355.248 55.3313L355.705 54.4418ZM366.507 133.79C357.117 133.79 348.819 132.211 341.593 129.078L340.797 130.913C348.316 134.173 356.892 135.79 366.507 135.79V133.79ZM341.595 129.079C334.399 125.941 328.793 121.673 324.735 116.29L323.138 117.494C327.433 123.191 333.332 127.658 340.795 130.912L341.595 129.079ZM324.74 116.297C320.738 110.892 318.759 104.776 318.8 97.9137L316.8 97.9016C316.756 105.188 318.868 111.727 323.133 117.487L324.74 116.297ZM318.8 97.8999C318.759 92.5584 319.917 87.6731 322.264 83.2253L320.495 82.2918C317.985 87.0485 316.756 92.2626 316.8 97.9154L318.8 97.8999ZM322.264 83.2253C324.624 78.7537 327.807 75.0339 331.819 72.0558L330.627 70.4499C326.372 73.6082 322.993 77.5588 320.495 82.2918L322.264 83.2253ZM331.821 72.0548C335.87 69.0386 340.366 67.1206 345.322 66.2946L344.994 64.3218C339.722 65.2004 334.929 67.2455 330.626 70.4509L331.821 72.0548ZM346.158 65.3082V64.4134H344.158V65.3082H346.158ZM345.374 63.437C338.865 61.9952 333.615 58.6909 329.584 53.5082L328.005 54.7361C332.326 60.292 337.985 63.8486 344.942 65.3897L345.374 63.437ZM329.589 53.5152C325.595 48.2864 323.617 42.2612 323.658 35.3995L321.658 35.3874C321.614 42.6735 323.726 49.134 328 54.7291L329.589 53.5152ZM323.658 35.3871C323.617 28.8576 325.431 23.057 329.095 17.951L327.471 16.7848C323.55 22.247 321.614 28.4634 321.658 35.3998L323.658 35.3871ZM329.095 17.951C332.775 12.8241 337.83 8.77437 344.296 5.81256L343.463 3.99425C336.719 7.08358 331.376 11.3435 327.471 16.7848L329.095 17.951ZM344.301 5.81033C350.754 2.81274 358.149 1.30113 366.507 1.30113V-0.698869C357.906 -0.698869 350.215 0.857701 343.458 3.99648L344.301 5.81033ZM366.507 1.30113C374.779 1.30113 382.11 2.8122 388.52 5.80929L389.367 3.99752C382.652 0.858243 375.026 -0.698869 366.507 -0.698869V1.30113ZM388.527 5.81256C394.993 8.77437 400.048 12.8241 403.728 17.951L405.353 16.7848C401.447 11.3435 396.104 7.08358 389.36 3.99425L388.527 5.81256ZM403.731 17.9553C407.438 23.063 409.293 28.8645 409.293 35.3935H411.293C411.293 28.4565 409.313 22.241 405.349 16.7805L403.731 17.9553ZM409.293 35.3935C409.293 42.252 407.253 48.2769 403.176 53.5074L404.754 54.737C409.114 49.1436 411.293 42.6826 411.293 35.3935H409.293ZM403.175 53.5082C399.141 58.6957 393.951 61.9977 387.573 63.4379L388.013 65.3888C394.845 63.8461 400.437 60.2873 404.754 54.7361L403.175 53.5082ZM386.793 64.4134V65.3082H388.793V64.4134H386.793ZM387.629 66.2946C392.583 67.1204 397.034 69.0373 400.994 72.0488L402.205 70.4568C397.984 67.2468 393.23 65.2006 387.957 64.3218L387.629 66.2946ZM401.004 72.0558C405.016 75.0339 408.199 78.7537 410.559 83.2253L412.328 82.2918C409.83 77.5588 406.451 73.6082 402.196 70.4499L401.004 72.0558ZM410.563 83.2316C412.952 87.6808 414.151 92.5667 414.151 97.9077H416.151C416.151 92.2543 414.878 87.0408 412.325 82.2854L410.563 83.2316ZM414.151 97.9077C414.151 104.769 412.131 110.886 408.086 116.293L409.687 117.491C413.995 111.733 416.151 105.194 416.151 97.9077H414.151ZM408.088 116.29C404.031 121.673 398.425 125.941 391.229 129.079L392.028 130.912C399.491 127.658 405.391 123.191 409.685 117.494L408.088 116.29ZM391.227 129.08C384.088 132.211 375.855 133.79 366.507 133.79V135.79C376.08 135.79 384.595 134.173 392.03 130.912L391.227 129.08ZM366.507 117.509C371.52 117.509 375.929 116.659 379.709 114.925L378.875 113.107C375.41 114.696 371.296 115.509 366.507 115.509V117.509ZM379.717 114.92C383.491 113.145 386.453 110.641 388.566 107.403L386.892 106.31C384.999 109.209 382.336 111.478 378.866 113.111L379.717 114.92ZM388.566 107.403C390.683 104.161 391.753 100.434 391.797 96.2564L389.797 96.2351C389.757 100.069 388.781 103.416 386.892 106.31L388.566 107.403ZM391.797 96.2355C391.753 91.8831 390.617 88.0043 388.369 84.6328L386.705 85.7422C388.719 88.7628 389.756 92.2561 389.797 96.2559L391.797 96.2355ZM388.378 84.6456C386.186 81.2467 383.17 78.5938 379.355 76.6865L378.461 78.4754C381.976 80.2329 384.712 82.651 386.697 85.7294L388.378 84.6456ZM379.359 76.6886C375.578 74.7759 371.286 73.8324 366.507 73.8324V75.8324C371.018 75.8324 374.993 76.7213 378.457 78.4733L379.359 76.6886ZM366.507 73.8324C361.687 73.8324 357.354 74.7753 353.532 76.6865L354.426 78.4754C357.933 76.7218 361.953 75.8324 366.507 75.8324V73.8324ZM353.532 76.6865C349.719 78.593 346.683 81.2437 344.45 84.6379L346.121 85.7371C348.15 82.6541 350.91 80.2337 354.426 78.4754L353.532 76.6865ZM344.449 84.6406C342.242 88.0176 341.173 91.9015 341.218 96.2559L343.218 96.2355C343.177 92.2377 344.153 88.7494 346.123 85.7344L344.449 84.6406ZM341.218 96.2351C341.173 100.419 342.2 104.154 344.321 107.403L345.995 106.31C344.111 103.423 343.177 100.084 343.218 96.2564L341.218 96.2351ZM344.324 107.409C346.438 110.602 349.399 113.082 353.17 114.857L354.021 113.047C350.547 111.412 347.883 109.162 345.992 106.305L344.324 107.409ZM353.174 114.858C356.997 116.637 361.45 117.509 366.507 117.509V115.509C361.678 115.509 357.524 114.676 354.017 113.045L353.174 114.858ZM366.507 57.8707C370.651 57.8707 374.352 57.0324 377.585 55.3261L376.651 53.5574C373.748 55.0898 370.376 55.8707 366.507 55.8707V57.8707ZM377.58 55.3288C380.846 53.6288 383.432 51.2475 385.32 48.1917L383.618 47.1407C381.926 49.8803 379.612 52.0161 376.657 53.5547L377.58 55.3288ZM385.32 48.1917C387.216 45.1222 388.173 41.5951 388.218 37.6419L386.218 37.6194C386.177 41.2515 385.302 44.4148 383.618 47.1407L385.32 48.1917ZM388.218 37.6193C388.173 33.7115 387.238 30.2467 385.382 27.2592L383.684 28.3146C385.322 30.9522 386.177 34.0499 386.218 37.642L388.218 37.6193ZM385.386 27.265C383.536 24.2425 380.962 21.9208 377.688 20.3063L376.804 22.1C379.751 23.5536 382.035 25.6211 383.68 28.3089L385.386 27.265ZM377.698 20.3112C374.426 18.6528 370.688 17.8381 366.507 17.8381V19.8381C370.424 19.8381 373.844 20.6 376.794 22.0951L377.698 20.3112ZM366.507 17.8381C362.245 17.8381 358.444 18.6515 355.13 20.3087L356.024 22.0976C359.017 20.6013 362.502 19.8381 366.507 19.8381V17.8381ZM355.135 20.3063C351.861 21.9208 349.287 24.2425 347.437 27.265L349.143 28.3089C350.788 25.6211 353.072 23.5536 356.019 22.1L355.135 20.3063ZM347.435 27.2686C345.621 30.2622 344.753 33.7322 344.797 37.642L346.797 37.6193C346.756 34.0291 347.551 30.9367 349.145 28.3052L347.435 27.2686ZM344.797 37.6194C344.753 41.5747 345.643 45.107 347.498 48.1825L349.21 47.1498C347.57 44.4299 346.756 41.2718 346.797 37.6419L344.797 37.6194ZM347.507 48.1973C349.394 51.2072 351.977 53.5837 355.234 55.3238L356.176 53.5597C353.212 51.976 350.894 49.8354 349.201 47.1351L347.507 48.1973ZM355.248 55.3313C358.562 57.0329 362.323 57.8707 366.507 57.8707V55.8707C362.595 55.8707 359.155 55.0892 356.162 53.5522L355.248 55.3313ZM501.364 34.8182H502.364V33.8182H501.364V34.8182ZM501.364 53.8026V54.8026H502.364V53.8026H501.364ZM459.048 53.8026V52.8026H458.048V53.8026H459.048ZM459.048 133V134H460.048V133H459.048ZM436.42 133H435.42V134H436.42V133ZM436.42 34.8182V33.8182H435.42V34.8182H436.42ZM500.364 34.8182V53.8026H502.364V34.8182H500.364ZM501.364 52.8026H459.048V54.8026H501.364V52.8026ZM458.048 53.8026V133H460.048V53.8026H458.048ZM459.048 132H436.42V134H459.048V132ZM437.42 133V34.8182H435.42V133H437.42ZM436.42 35.8182H501.364V33.8182H436.42V35.8182Z" fill="black"/>
</svg>
