<svg width="485" height="135" viewBox="0 0 485 135" fill="none" xmlns="http://www.w3.org/2000/svg">
<path d="M55.8793 2.09091H56.8793V1.09091H55.8793V2.09091ZM55.8793 133V134H56.8793V133H55.8793ZM32.1648 133H31.1648V134H32.1648V133ZM32.1648 25.1662H33.1648V24.1662H32.1648V25.1662ZM31.3977 25.1662V24.1662H31.1056L30.8594 24.3235L31.3977 25.1662ZM0.77983 44.7259H-0.22017V46.5513L1.31818 45.5686L0.77983 44.7259ZM0.77983 22.9929L0.239323 22.1516L-0.22017 22.4468V22.9929H0.77983ZM33.3153 2.09091V1.09091H33.0218L32.7748 1.24957L33.3153 2.09091ZM54.8793 2.09091V133H56.8793V2.09091H54.8793ZM55.8793 132H32.1648V134H55.8793V132ZM33.1648 133V25.1662H31.1648V133H33.1648ZM32.1648 24.1662H31.3977V26.1662H32.1648V24.1662ZM30.8594 24.3235L0.241475 43.8831L1.31818 45.5686L31.9361 26.0089L30.8594 24.3235ZM1.77983 44.7259V22.9929H-0.22017V44.7259H1.77983ZM1.32034 23.8342L33.8558 2.93224L32.7748 1.24957L0.239323 22.1516L1.32034 23.8342ZM33.3153 3.09091H55.8793V1.09091H33.3153V3.09091ZM134.565 0.301131L134.556 1.30109L134.559 1.30111L134.565 0.301131ZM152.847 3.625L152.502 4.56384L152.51 4.56674L152.847 3.625ZM168.955 14.108L168.241 14.8088L168.244 14.8119L168.955 14.108ZM180.332 33.4759L179.388 33.804L179.388 33.804L180.332 33.4759ZM184.551 63.5185L183.551 63.5185L183.551 63.5223L184.551 63.5185ZM180.972 93.6889L180.007 93.4246L180.006 93.4278L180.972 93.6889ZM170.68 116.061L171.486 116.653L171.486 116.653L170.68 116.061ZM154.509 129.996L154.056 129.104L154.056 129.104L154.509 129.996ZM111.234 129.932L110.78 130.823L110.782 130.824L111.234 129.932ZM95.8295 116.636L95.0091 117.208L95.0091 117.208L95.8295 116.636ZM88.6065 97.3324V96.3324H87.4754L87.6141 97.455L88.6065 97.3324ZM111.938 97.3324L112.912 97.1087L112.734 96.3324H111.938V97.3324ZM119.224 109.733L118.582 110.5L118.592 110.508L119.224 109.733ZM154.189 102.446L153.34 101.918L153.34 101.918L154.189 102.446ZM161.54 69.5909H162.54V68.5909H161.54V69.5909ZM160.645 69.5909V68.5909H160.057L159.771 69.1044L160.645 69.5909ZM152.527 79.3068L153.155 80.0848L153.161 80.0799L152.527 79.3068ZM141.213 85.5071L140.888 84.5613L140.885 84.5623L141.213 85.5071ZM107.207 82.1832L106.692 83.0402L106.695 83.0418L107.207 82.1832ZM92.6974 67.098L91.8225 67.5822L91.8249 67.5866L92.6974 67.098ZM87.3281 45.1733L86.3281 45.1733L86.3281 45.1785L87.3281 45.1733ZM93.2088 22.2259L92.3442 21.7233L92.3433 21.725L93.2088 22.2259ZM109.764 6.1179L110.249 6.99256L110.253 6.99031L109.764 6.1179ZM122.165 22.8651L122.682 23.7208L122.685 23.7191L122.165 22.8651ZM113.472 31.9418L112.597 31.4561L112.596 31.4595L113.472 31.9418ZM110.339 44.6619L109.339 44.6619L109.34 44.6711L110.339 44.6619ZM113.472 57.3182L112.591 57.7929L112.596 57.8005L113.472 57.3182ZM121.973 66.331L121.447 67.1812L121.451 67.184L121.973 66.331ZM144.026 67.6733L143.621 66.7589L143.621 66.7589L144.026 67.6733ZM151.824 62.1761L151.098 61.4888L151.097 61.4891L151.824 62.1761ZM157.065 54.0582L156.144 53.669L156.14 53.6801L157.065 54.0582ZM158.919 44.4702L157.919 44.4702L157.919 44.4828L158.919 44.4702ZM155.723 32.0696L154.847 32.5519L154.851 32.5594L155.723 32.0696ZM147.094 22.929L146.558 23.7731L146.562 23.7759L147.094 22.929ZM134.559 1.30111C140.707 1.34293 146.686 2.42991 152.502 4.5638L153.191 2.6862C147.16 0.473497 140.952 -0.655441 134.572 -0.698845L134.559 1.30111ZM152.51 4.56674C158.323 6.64287 163.566 10.0503 168.241 14.8088L169.668 13.4071C164.797 8.44967 159.302 4.86849 153.183 2.68326L152.51 4.56674ZM168.244 14.8119C172.888 19.4968 176.612 25.8124 179.388 33.804L181.277 33.1477C178.428 24.9461 174.567 18.3497 169.665 13.404L168.244 14.8119ZM179.388 33.804C182.152 41.7626 183.551 51.6579 183.551 63.5185H185.551C185.551 51.5154 184.137 41.3822 181.277 33.1477L179.388 33.804ZM183.551 63.5223C183.593 74.7011 182.408 84.6653 180.007 93.4246L181.936 93.9532C184.394 84.9853 185.594 74.8358 185.551 63.5147L183.551 63.5223ZM180.006 93.4278C177.646 102.154 174.262 109.493 169.874 115.469L171.486 116.653C176.047 110.441 179.525 102.866 181.937 93.9501L180.006 93.4278ZM169.874 115.469C165.486 121.446 160.214 125.983 154.056 129.104L154.961 130.888C161.417 127.616 166.926 122.864 171.486 116.653L169.874 115.469ZM154.056 129.104C147.905 132.221 140.968 133.79 133.223 133.79V135.79C141.245 135.79 148.498 134.163 154.961 130.888L154.056 129.104ZM133.223 133.79C125.089 133.79 117.918 132.197 111.686 129.04L110.782 130.824C117.335 134.144 124.823 135.79 133.223 135.79V133.79ZM111.689 129.041C105.48 125.874 100.473 121.549 96.6499 116.065L95.0091 117.208C99.0273 122.973 104.29 127.512 110.78 130.823L111.689 129.041ZM96.6499 116.065C92.8285 110.582 90.4753 104.303 89.599 97.2098L87.6141 97.455C88.5276 104.85 90.9897 111.441 95.0091 117.208L96.6499 116.065ZM88.6065 98.3324H111.938V96.3324H88.6065V98.3324ZM110.963 97.5561C112.199 102.941 114.731 107.275 118.582 110.5L119.866 108.966C116.388 106.054 114.063 102.121 112.912 97.1087L110.963 97.5561ZM118.592 110.508C122.508 113.704 127.41 115.271 133.223 115.271V113.271C127.786 113.271 123.355 111.813 119.857 108.958L118.592 110.508ZM133.223 115.271C142.655 115.271 149.96 111.143 155.038 102.974L153.34 101.918C148.617 109.516 141.945 113.271 133.223 113.271V115.271ZM155.038 102.974C160.075 94.8707 162.54 83.7089 162.54 69.5909H160.54C160.54 83.5127 158.104 94.2543 153.34 101.918L155.038 102.974ZM161.54 68.5909H160.645V70.5909H161.54V68.5909ZM159.771 69.1044C157.744 72.7445 155.12 75.886 151.893 78.5337L153.161 80.0799C156.582 77.2731 159.369 73.9373 161.519 70.0774L159.771 69.1044ZM151.899 78.5289C148.669 81.1371 145.002 83.1486 140.888 84.5613L141.538 86.4529C145.862 84.9679 149.737 82.8458 153.155 80.0848L151.899 78.5289ZM140.885 84.5623C136.821 85.9725 132.5 86.6804 127.918 86.6804V88.6804C132.71 88.6804 137.253 87.9395 141.541 86.4519L140.885 84.5623ZM127.918 86.6804C120.414 86.6804 113.69 84.8901 107.72 81.3247L106.695 83.0418C112.997 86.8059 120.08 88.6804 127.918 88.6804V86.6804ZM107.723 81.3263C101.783 77.7539 97.0672 72.8545 93.5699 66.6094L91.8249 67.5866C95.4868 74.1256 100.445 79.283 106.692 83.0402L107.723 81.3263ZM93.5724 66.6139C90.1264 60.3861 88.37 53.2464 88.3281 45.1681L86.3281 45.1785C86.3715 53.5491 88.1946 61.0258 91.8225 67.5822L93.5724 66.6139ZM88.3281 45.1733C88.3281 36.8103 90.2497 29.3367 94.0744 22.7267L92.3433 21.725C88.327 28.6662 86.3281 36.4908 86.3281 45.1733H88.3281ZM94.0734 22.7284C97.9433 16.0704 103.329 10.8279 110.249 6.99255L109.279 5.24324C102.052 9.24885 96.4004 14.745 92.3442 21.7233L94.0734 22.7284ZM110.253 6.99031C117.151 3.12565 125.241 1.21717 134.556 1.30109L134.574 -0.698828C124.969 -0.785363 116.525 1.184 109.275 5.24548L110.253 6.99031ZM134.629 18.4773C129.855 18.4773 125.518 19.6512 121.645 22.011L122.685 23.7191C126.226 21.5618 130.199 20.4773 134.629 20.4773V18.4773ZM121.647 22.0093C117.83 24.3177 114.811 27.4724 112.597 31.4561L114.346 32.4274C116.394 28.7406 119.17 25.8442 122.682 23.7208L121.647 22.0093ZM112.596 31.4595C110.42 35.4119 109.339 39.8201 109.339 44.6619H111.339C111.339 40.1287 112.348 36.0569 114.348 32.4241L112.596 31.4595ZM109.34 44.6711C109.384 49.4656 110.463 53.8461 112.591 57.7929L114.352 56.8435C112.389 53.205 111.381 49.148 111.339 44.6528L109.34 44.6711ZM112.596 57.8005C114.764 61.7393 117.717 64.8721 121.447 67.1812L122.499 65.4807C119.07 63.358 116.355 60.4823 114.348 56.8359L112.596 57.8005ZM121.451 67.184C125.245 69.5049 129.562 70.6548 134.374 70.6548V68.6548C129.895 68.6548 125.945 67.5888 122.495 65.4779L121.451 67.184ZM134.374 70.6548C137.957 70.6548 141.313 69.9684 144.43 68.5876L143.621 66.7589C140.773 68.0202 137.694 68.6548 134.374 68.6548V70.6548ZM144.43 68.5876C147.533 67.2136 150.242 65.3044 152.551 62.8631L151.097 61.4891C148.973 63.7354 146.484 65.491 143.621 66.7589L144.43 68.5876ZM152.55 62.8635C154.893 60.3878 156.708 57.5771 157.991 54.4364L156.14 53.6801C154.951 56.5905 153.272 59.1918 151.098 61.4888L152.55 62.8635ZM157.986 54.4475C159.32 51.2916 159.963 47.9584 159.919 44.4575L157.919 44.4828C157.96 47.7149 157.368 50.7738 156.144 53.669L157.986 54.4475ZM159.919 44.4702C159.919 39.8293 158.812 35.5264 156.595 31.5798L154.851 32.5594C156.895 36.198 157.919 40.1622 157.919 44.4702H159.919ZM156.599 31.5873C154.429 27.646 151.434 24.4736 147.626 22.0821L146.562 23.7759C150.083 25.9866 152.841 28.908 154.847 32.5519L156.599 31.5873ZM147.63 22.0849C143.833 19.6726 139.488 18.4773 134.629 18.4773V20.4773C139.145 20.4773 143.11 21.5831 146.558 23.773L147.63 22.0849ZM207.115 133L206.223 132.549L205.489 134H207.115V133ZM262.79 22.8011L263.682 23.2521L263.79 23.0394V22.8011H262.79ZM262.79 21.9062H263.79V20.9062H262.79V21.9062ZM198.166 21.9062H197.166V22.9062H198.166V21.9062ZM198.166 2.09091V1.09091H197.166V2.09091H198.166ZM287.335 2.09091H288.335V1.09091H287.335V2.09091ZM287.335 22.3537L288.229 22.8028L288.335 22.5909V22.3537H287.335ZM231.724 133V134H232.341L232.618 133.449L231.724 133ZM208.008 133.451L263.682 23.2521L261.897 22.3502L206.223 132.549L208.008 133.451ZM263.79 22.8011V21.9062H261.79V22.8011H263.79ZM262.79 20.9062H198.166V22.9062H262.79V20.9062ZM199.166 21.9062V2.09091H197.166V21.9062H199.166ZM198.166 3.09091H287.335V1.09091H198.166V3.09091ZM286.335 2.09091V22.3537H288.335V2.09091H286.335ZM286.442 21.9046L230.831 132.551L232.618 133.449L288.229 22.8028L286.442 21.9046ZM231.724 132H207.115V134H231.724V132ZM307.966 133H306.966V134H307.966V133ZM307.966 115.869L307.266 115.155L306.966 115.449V115.869H307.966ZM353.413 71.3168L354.113 72.0309L354.118 72.0257L354.124 72.0204L353.413 71.3168ZM370.799 49.7116L371.71 50.1245L371.71 50.1245L370.799 49.7116ZM370.16 28.8736L369.314 29.4058L369.317 29.4112L370.16 28.8736ZM362.426 21.9702L361.983 22.8669L361.983 22.8669L362.426 21.9702ZM339.926 22.2259L340.401 23.106L340.409 23.1011L339.926 22.2259ZM332.383 29.7045L331.508 29.2208L331.503 29.2298L332.383 29.7045ZM329.762 41.2741V42.2741H330.762V41.2741H329.762ZM307.199 41.2741H306.199V42.2741H307.199V41.2741ZM312.887 19.6051L313.738 20.1309L313.738 20.1309L312.887 19.6051ZM328.548 5.35085L328.098 4.45756L328.096 4.45872L328.548 5.35085ZM374.699 5.22301L375.141 4.32629L375.141 4.32629L374.699 5.22301ZM390.167 18.7102L389.326 19.2504L389.329 19.2548L390.167 18.7102ZM392.916 52.7159L391.986 52.3474L391.986 52.3474L392.916 52.7159ZM383.008 68.4403L382.236 67.8052L382.233 67.8087L383.008 68.4403ZM363.257 89.3423L362.562 88.6227L362.553 88.6318L362.544 88.6412L363.257 89.3423ZM340.693 112.29L339.98 111.589L339.693 111.88V112.29H340.693ZM340.693 113.185H339.693V114.185H340.693V113.185ZM397.71 113.185H398.71V112.185H397.71V113.185ZM397.71 133V134H398.71V133H397.71ZM308.966 133V115.869H306.966V133H308.966ZM308.666 116.583L354.113 72.0309L352.713 70.6027L307.266 115.155L308.666 116.583ZM354.124 72.0204C358.482 67.6194 362.122 63.7011 365.041 60.267L363.518 58.9717C360.641 62.3558 357.037 66.2357 352.702 70.6131L354.124 72.0204ZM365.041 60.267C367.984 56.8054 370.214 53.4249 371.71 50.1245L369.889 49.2988C368.487 52.3904 366.371 55.6151 363.518 58.9717L365.041 60.267ZM371.71 50.1245C373.22 46.7946 373.973 43.2442 373.973 39.4844H371.973C371.973 42.9688 371.277 46.2367 369.889 49.2988L371.71 50.1245ZM373.973 39.4844C373.973 35.1961 372.998 31.4646 371.003 28.3359L369.317 29.4112C371.072 32.1632 371.973 35.5055 371.973 39.4844H373.973ZM371.007 28.3414C369.029 25.1957 366.309 22.7713 362.868 21.0734L361.983 22.8669C365.105 24.4077 367.541 26.5856 369.314 29.4057L371.007 28.3414ZM362.868 21.0734C359.431 19.3772 355.548 18.5412 351.24 18.5412V20.5412C355.284 20.5412 358.858 21.3245 361.983 22.8669L362.868 21.0734ZM351.24 18.5412C346.794 18.5412 342.851 19.4665 339.442 21.3506L340.409 23.1011C343.477 21.4056 347.077 20.5412 351.24 20.5412V18.5412ZM339.451 21.3458C336.043 23.1845 333.39 25.8154 331.508 29.2209L333.258 30.1882C334.956 27.1164 337.332 24.7615 340.401 23.106L339.451 21.3458ZM331.503 29.2298C329.662 32.6426 328.762 36.6694 328.762 41.2741H330.762C330.762 36.93 331.61 33.2438 333.263 30.1793L331.503 29.2298ZM329.762 40.2741H307.199V42.2741H329.762V40.2741ZM308.199 41.2741C308.199 33.1214 310.057 26.0864 313.738 20.1309L312.037 19.0794C308.132 25.3965 306.199 32.8075 306.199 41.2741H308.199ZM313.738 20.1309C317.431 14.1563 322.51 9.52922 329 6.24298L328.096 4.45872C321.29 7.90543 315.929 12.7812 312.037 19.0794L313.738 20.1309ZM328.997 6.24414C335.528 2.95796 343.041 1.30113 351.559 1.30113V-0.698869C342.777 -0.698869 334.948 1.01078 328.098 4.45757L328.997 6.24414ZM351.559 1.30113C360.212 1.30113 367.769 2.91783 374.256 6.11972L375.141 4.32629C368.333 0.965681 360.463 -0.698869 351.559 -0.698869V1.30113ZM374.256 6.11972C380.756 9.32825 385.768 13.707 389.326 19.2503L391.009 18.1701C387.237 12.293 381.936 7.68026 375.141 4.32629L374.256 6.11972ZM389.329 19.2548C392.923 24.7904 394.728 31.1182 394.728 38.2699H396.728C396.728 30.7625 394.827 24.0505 391.006 18.1657L389.329 19.2548ZM394.728 38.2699C394.728 43.0395 393.817 47.73 391.986 52.3474L393.845 53.0844C395.765 48.2416 396.728 43.3014 396.728 38.2699H394.728ZM391.986 52.3474C390.163 56.9475 386.928 62.099 382.236 67.8052L383.781 69.0754C388.549 63.276 391.919 57.9445 393.845 53.0844L391.986 52.3474ZM382.233 67.8087C377.581 73.5181 371.028 80.4545 362.562 88.6227L363.951 90.062C372.445 81.8665 379.061 74.8682 383.783 69.072L382.233 67.8087ZM362.544 88.6412L339.98 111.589L341.406 112.991L363.97 90.0435L362.544 88.6412ZM339.693 112.29V113.185H341.693V112.29H339.693ZM340.693 114.185H397.71V112.185H340.693V114.185ZM396.71 113.185V133H398.71V113.185H396.71ZM397.71 132H307.966V134H397.71V132ZM484.961 34.8182H485.961V33.8182H484.961V34.8182ZM484.961 53.8026V54.8026H485.961V53.8026H484.961ZM442.646 53.8026V52.8026H441.646V53.8026H442.646ZM442.646 133V134H443.646V133H442.646ZM420.018 133H419.018V134H420.018V133ZM420.018 34.8182V33.8182H419.018V34.8182H420.018ZM483.961 34.8182V53.8026H485.961V34.8182H483.961ZM484.961 52.8026H442.646V54.8026H484.961V52.8026ZM441.646 53.8026V133H443.646V53.8026H441.646ZM442.646 132H420.018V134H442.646V132ZM421.018 133V34.8182H419.018V133H421.018ZM420.018 35.8182H484.961V33.8182H420.018V35.8182Z" fill="black"/>
</svg>
