<svg width="535" height="136" viewBox="0 0 535 136" fill="none" xmlns="http://www.w3.org/2000/svg">
<path d="M1.63352 133H0.633524V134H1.63352V133ZM1.63352 115.869L0.933482 115.155L0.633524 115.449V115.869H1.63352ZM47.081 71.3168L47.781 72.0309L47.7863 72.0257L47.7915 72.0204L47.081 71.3168ZM64.4673 49.7116L65.3781 50.1245L65.3781 50.1245L64.4673 49.7116ZM63.8281 28.8736L62.9815 29.4058L62.985 29.4112L63.8281 28.8736ZM56.0938 21.9702L55.6512 22.8669L55.6512 22.8669L56.0938 21.9702ZM33.5938 22.2259L34.0686 23.106L34.0774 23.1011L33.5938 22.2259ZM26.0511 29.7045L25.1759 29.2208L25.171 29.2298L26.0511 29.7045ZM23.4304 41.2741V42.2741H24.4304V41.2741H23.4304ZM0.866478 41.2741H-0.133522V42.2741H0.866478V41.2741ZM6.5554 19.6051L7.40604 20.1309L7.40604 20.1309L6.5554 19.6051ZM22.2159 5.35085L21.7664 4.45756L21.7641 4.45872L22.2159 5.35085ZM68.3665 5.22301L68.8091 4.32629L68.8091 4.32629L68.3665 5.22301ZM83.8352 18.7102L82.9936 19.2504L82.9965 19.2548L83.8352 18.7102ZM86.5838 52.7159L85.6542 52.3474L85.6542 52.3474L86.5838 52.7159ZM76.6761 68.4403L75.9037 67.8052L75.9009 67.8087L76.6761 68.4403ZM56.9247 89.3423L56.2304 88.6227L56.2209 88.6318L56.2117 88.6412L56.9247 89.3423ZM34.3608 112.29L33.6478 111.589L33.3608 111.88V112.29H34.3608ZM34.3608 113.185H33.3608V114.185H34.3608V113.185ZM91.3778 113.185H92.3778V112.185H91.3778V113.185ZM91.3778 133V134H92.3778V133H91.3778ZM2.63352 133V115.869H0.633524V133H2.63352ZM2.33356 116.583L47.781 72.0309L46.3809 70.6027L0.933482 115.155L2.33356 116.583ZM47.7915 72.0204C52.1498 67.6194 55.7904 63.7011 58.7094 60.267L57.1855 58.9717C54.309 62.3558 50.7053 66.2357 46.3704 70.6131L47.7915 72.0204ZM58.7094 60.267C61.6517 56.8054 63.8819 53.4249 65.3781 50.1245L63.5566 49.2988C62.155 52.3904 60.0386 55.6151 57.1855 58.9717L58.7094 60.267ZM65.3781 50.1245C66.8877 46.7946 67.6406 43.2442 67.6406 39.4844H65.6406C65.6406 42.9688 64.9447 46.2367 63.5566 49.2988L65.3781 50.1245ZM67.6406 39.4844C67.6406 35.1961 66.6664 31.4646 64.6713 28.3359L62.985 29.4112C64.7399 32.1632 65.6406 35.5055 65.6406 39.4844H67.6406ZM64.6748 28.3414C62.6975 25.1957 59.9767 22.7713 56.5363 21.0734L55.6512 22.8669C58.7733 24.4077 61.2088 26.5856 62.9815 29.4057L64.6748 28.3414ZM56.5363 21.0734C53.0991 19.3772 49.2155 18.5412 44.9077 18.5412V20.5412C48.9521 20.5412 52.5259 21.3245 55.6512 22.8669L56.5363 21.0734ZM44.9077 18.5412C40.4623 18.5412 36.5193 19.4665 33.1101 21.3506L34.0774 23.1011C37.1454 21.4056 40.7451 20.5412 44.9077 20.5412V18.5412ZM33.119 21.3458C29.7106 23.1845 27.0578 25.8154 25.1759 29.2209L26.9264 30.1882C28.624 27.1164 30.9996 24.7615 34.0685 23.106L33.119 21.3458ZM25.171 29.2298C23.3299 32.6426 22.4304 36.6694 22.4304 41.2741H24.4304C24.4304 36.93 25.2781 33.2438 26.9312 30.1793L25.171 29.2298ZM23.4304 40.2741H0.866478V42.2741H23.4304V40.2741ZM1.86648 41.2741C1.86648 33.1214 3.72516 26.0864 7.40604 20.1309L5.70476 19.0794C1.80041 25.3965 -0.133522 32.8075 -0.133522 41.2741H1.86648ZM7.40604 20.1309C11.0986 14.1563 16.1784 9.52922 22.6677 6.24298L21.7641 4.45872C14.958 7.90543 9.59738 12.7812 5.70476 19.0794L7.40604 20.1309ZM22.6654 6.24414C29.1961 2.95796 36.7086 1.30113 45.2273 1.30113V-0.698869C36.4448 -0.698869 28.6164 1.01078 21.7664 4.45757L22.6654 6.24414ZM45.2273 1.30113C53.8802 1.30113 61.4369 2.91783 67.9239 6.11972L68.8091 4.32629C62.0006 0.965681 54.1311 -0.698869 45.2273 -0.698869V1.30113ZM67.9239 6.11972C74.4243 9.32825 79.436 13.707 82.9936 19.2503L84.6768 18.1701C80.9049 12.293 75.6041 7.68026 68.8091 4.32629L67.9239 6.11972ZM82.9965 19.2548C86.5905 24.7904 88.3963 31.1182 88.3963 38.2699H90.3963C90.3963 30.7625 88.4947 24.0505 84.674 18.1657L82.9965 19.2548ZM88.3963 38.2699C88.3963 43.0395 87.4845 47.73 85.6542 52.3474L87.5134 53.0844C89.4331 48.2416 90.3963 43.3014 90.3963 38.2699H88.3963ZM85.6542 52.3474C83.8307 56.9475 80.5955 62.099 75.9037 67.8052L77.4486 69.0754C82.217 63.276 85.5869 57.9445 87.5134 53.0844L85.6542 52.3474ZM75.9009 67.8087C71.2488 73.5181 64.6964 80.4545 56.2304 88.6227L57.6191 90.062C66.1133 81.8665 72.7285 74.8682 77.4514 69.072L75.9009 67.8087ZM56.2117 88.6412L33.6478 111.589L35.0738 112.991L57.6378 90.0435L56.2117 88.6412ZM33.3608 112.29V113.185H35.3608V112.29H33.3608ZM34.3608 114.185H91.3778V112.185H34.3608V114.185ZM90.3778 113.185V133H92.3778V113.185H90.3778ZM91.3778 132H1.63352V134H91.3778V132ZM134.716 127.503L134.134 128.316L134.139 128.32L134.716 127.503ZM117.393 104.3L116.463 104.667L116.465 104.672L117.393 104.3ZM111.385 67.6733L110.385 67.6703V67.6733H111.385ZM117.457 31.2386L116.53 30.8652L116.529 30.8672L117.457 31.2386ZM134.78 8.22727L134.206 7.40826L134.204 7.40979L134.78 8.22727ZM188.857 8.22727L188.283 9.04629L188.283 9.04629L188.857 8.22727ZM206.179 31.2386L205.25 31.6087L205.251 31.6121L206.179 31.2386ZM206.179 104.364L205.25 103.993L205.249 103.995L206.179 104.364ZM188.857 127.503L188.28 126.686L188.277 126.688L188.857 127.503ZM181.186 103.405L180.325 102.897L180.324 102.898L181.186 103.405ZM185.085 41.4659L186.041 41.1722L186.041 41.1722L185.085 41.4659ZM175.881 25.4858L175.206 26.224L175.21 26.2279L175.881 25.4858ZM142.514 32.1974L143.376 32.7039L143.378 32.7019L142.514 32.1974ZM135.355 67.6733L136.355 67.6774L136.355 67.676L135.355 67.6733ZM138.487 94.0085L137.529 94.2953L137.531 94.3006L138.487 94.0085ZM147.692 110.116L147.017 110.855L147.021 110.859L147.692 110.116ZM161.818 134.493C151.469 134.493 142.644 131.877 135.293 126.686L134.139 128.32C141.873 133.782 151.116 136.493 161.818 136.493V134.493ZM135.298 126.69C127.979 121.45 122.312 113.882 118.322 103.928L116.465 104.672C120.572 114.916 126.453 122.817 134.134 128.316L135.298 126.69ZM118.324 103.932C114.376 93.9373 112.385 81.86 112.385 67.6733H110.385C110.385 82.0377 112.4 94.378 116.463 104.667L118.324 103.932ZM112.385 67.6763C112.427 53.4883 114.44 41.4759 118.386 31.61L116.529 30.8672C112.464 41.0298 110.428 53.3071 110.385 67.6703L112.385 67.6763ZM118.385 31.6121C122.375 21.701 128.04 14.199 135.356 9.04476L134.204 7.40979C126.52 12.8238 120.637 20.6626 116.53 30.8652L118.385 31.6121ZM135.354 9.04629C142.705 3.89582 151.511 1.30113 161.818 1.30113V-0.698869C151.159 -0.698869 141.939 1.99054 134.206 7.40826L135.354 9.04629ZM161.818 1.30113C172.125 1.30113 180.931 3.89582 188.283 9.04629L189.43 7.40826C181.697 1.99054 172.477 -0.698869 161.818 -0.698869V1.30113ZM188.283 9.04629C195.639 14.2001 201.303 21.7005 205.25 31.6087L207.108 30.8686C203.043 20.6631 197.159 12.8226 189.43 7.40826L188.283 9.04629ZM205.251 31.6121C209.239 41.5194 211.251 53.5303 211.251 67.6733H213.251C213.251 53.3504 211.215 41.0715 207.107 30.8652L205.251 31.6121ZM211.251 67.6733C211.251 81.902 209.239 93.9992 205.25 103.993L207.108 104.734C211.215 94.444 213.251 82.081 213.251 67.6733H211.251ZM205.249 103.995C201.302 113.946 195.637 121.49 188.28 126.686L189.433 128.32C197.161 122.862 203.044 114.98 207.109 104.732L205.249 103.995ZM188.277 126.688C180.97 131.877 172.167 134.493 161.818 134.493V136.493C172.52 136.493 181.743 133.782 189.436 128.318L188.277 126.688ZM161.818 116.486C170.411 116.486 177.169 112.219 182.048 103.911L180.324 102.898C175.743 110.698 169.589 114.486 161.818 114.486V116.486ZM182.048 103.913C186.953 95.5909 189.345 83.4697 189.345 67.6733H187.345C187.345 83.3257 184.965 95.0256 180.325 102.897L182.048 103.913ZM189.345 67.6733C189.345 57.213 188.253 48.3711 186.041 41.1722L184.129 41.7596C186.264 48.7085 187.345 57.3382 187.345 67.6733H189.345ZM186.041 41.1722C183.834 33.9895 180.69 28.4822 176.551 24.7437L175.21 26.2279C178.998 29.6485 181.989 34.7946 184.129 41.7596L186.041 41.1722ZM176.555 24.7477C172.406 20.9556 167.478 19.0526 161.818 19.0526V21.0526C166.983 21.0526 171.429 22.7717 175.206 26.2239L176.555 24.7477ZM161.818 19.0526C153.263 19.0526 146.528 23.3452 141.651 31.693L143.378 32.7019C147.961 24.8565 154.095 21.0526 161.818 21.0526V19.0526ZM141.652 31.691C136.791 39.9683 134.398 52.0021 134.355 67.6706L136.355 67.676C136.398 52.1513 138.778 40.5346 143.376 32.7039L141.652 31.691ZM134.355 67.6692C134.312 78.1715 135.361 87.0549 137.529 94.2953L139.445 93.7217C137.352 86.7292 136.313 78.0558 136.355 67.6774L134.355 67.6692ZM137.531 94.3006C139.737 101.525 142.88 107.074 147.017 110.855L148.366 109.378C144.577 105.915 141.584 100.725 139.444 93.7164L137.531 94.3006ZM147.021 110.859C151.173 114.608 156.122 116.486 161.818 116.486V114.486C156.605 114.486 152.137 112.784 148.362 109.374L147.021 110.859ZM254.775 127.503L254.192 128.316L254.198 128.32L254.775 127.503ZM237.452 104.3L236.522 104.667L236.524 104.672L237.452 104.3ZM231.444 67.6733L230.444 67.6703V67.6733H231.444ZM237.516 31.2386L236.588 30.8652L236.588 30.8672L237.516 31.2386ZM254.838 8.22727L254.265 7.40826L254.262 7.40979L254.838 8.22727ZM308.915 8.22727L308.341 9.04629L308.341 9.04629L308.915 8.22727ZM326.238 31.2386L325.309 31.6087L325.31 31.6121L326.238 31.2386ZM326.238 104.364L325.309 103.993L325.308 103.995L326.238 104.364ZM308.915 127.503L308.338 126.686L308.336 126.688L308.915 127.503ZM301.245 103.405L300.383 102.897L300.382 102.898L301.245 103.405ZM305.144 41.4659L306.1 41.1722L306.1 41.1722L305.144 41.4659ZM295.939 25.4858L295.265 26.224L295.269 26.2279L295.939 25.4858ZM262.573 32.1974L263.435 32.7039L263.436 32.7019L262.573 32.1974ZM255.414 67.6733L256.414 67.6774L256.414 67.676L255.414 67.6733ZM258.546 94.0085L257.588 94.2953L257.589 94.3006L258.546 94.0085ZM267.75 110.116L267.076 110.855L267.08 110.859L267.75 110.116ZM281.877 134.493C271.528 134.493 262.702 131.877 255.351 126.686L254.198 128.32C261.932 133.782 271.175 136.493 281.877 136.493V134.493ZM255.357 126.69C248.038 121.45 242.371 113.882 238.38 103.928L236.524 104.672C240.63 114.916 246.511 122.817 254.192 128.316L255.357 126.69ZM238.382 103.932C234.435 93.9373 232.444 81.86 232.444 67.6733H230.444C230.444 82.0377 232.458 94.378 236.522 104.667L238.382 103.932ZM232.444 67.6763C232.486 53.4883 234.498 41.4759 238.444 31.61L236.588 30.8672C232.522 41.0298 230.486 53.3071 230.444 67.6703L232.444 67.6763ZM238.444 31.6121C242.433 21.701 248.099 14.199 255.414 9.04476L254.262 7.40979C246.578 12.8238 240.695 20.6626 236.588 30.8652L238.444 31.6121ZM255.412 9.04629C262.764 3.89582 271.57 1.30113 281.877 1.30113V-0.698869C271.218 -0.698869 261.998 1.99054 254.265 7.40826L255.412 9.04629ZM281.877 1.30113C292.184 1.30113 300.989 3.89582 308.341 9.04629L309.489 7.40826C301.756 1.99054 292.536 -0.698869 281.877 -0.698869V1.30113ZM308.341 9.04629C315.698 14.2001 321.362 21.7005 325.309 31.6087L327.167 30.8686C323.102 20.6631 317.218 12.8226 309.489 7.40826L308.341 9.04629ZM325.31 31.6121C329.298 41.5194 331.31 53.5303 331.31 67.6733H333.31C333.31 53.3504 331.274 41.0715 327.165 30.8652L325.31 31.6121ZM331.31 67.6733C331.31 81.902 329.298 93.9992 325.309 103.993L327.166 104.734C331.274 94.444 333.31 82.081 333.31 67.6733H331.31ZM325.308 103.995C321.361 113.946 315.696 121.49 308.338 126.686L309.492 128.32C317.219 122.862 323.103 114.98 327.167 104.732L325.308 103.995ZM308.336 126.688C301.029 131.877 292.226 134.493 281.877 134.493V136.493C292.579 136.493 301.801 133.782 309.494 128.318L308.336 126.688ZM281.877 116.486C290.469 116.486 297.228 112.219 302.107 103.911L300.382 102.898C295.801 110.698 289.648 114.486 281.877 114.486V116.486ZM302.106 103.913C307.012 95.5909 309.404 83.4697 309.404 67.6733H307.404C307.404 83.3257 305.023 95.0256 300.383 102.897L302.106 103.913ZM309.404 67.6733C309.404 57.213 308.311 48.3711 306.1 41.1722L304.188 41.7596C306.323 48.7085 307.404 57.3382 307.404 67.6733H309.404ZM306.1 41.1722C303.893 33.9895 300.749 28.4822 296.61 24.7437L295.269 26.2279C299.056 29.6485 302.048 34.7946 304.188 41.7596L306.1 41.1722ZM296.614 24.7477C292.465 20.9556 287.536 19.0526 281.877 19.0526V21.0526C287.041 21.0526 291.487 22.7717 295.265 26.2239L296.614 24.7477ZM281.877 19.0526C273.322 19.0526 266.586 23.3452 261.709 31.693L263.436 32.7019C268.02 24.8565 274.153 21.0526 281.877 21.0526V19.0526ZM261.711 31.691C256.849 39.9683 254.457 52.0021 254.414 67.6706L256.414 67.676C256.456 52.1513 258.836 40.5346 263.435 32.7039L261.711 31.691ZM254.414 67.6692C254.371 78.1715 255.42 87.0549 257.588 94.2953L259.504 93.7217C257.41 86.7292 256.371 78.0558 256.414 67.6774L254.414 67.6692ZM257.589 94.3006C259.796 101.525 262.939 107.074 267.076 110.855L268.425 109.378C264.636 105.915 261.642 100.725 259.502 93.7164L257.589 94.3006ZM267.08 110.859C271.231 114.608 276.18 116.486 281.877 116.486V114.486C276.664 114.486 272.196 112.784 268.421 109.374L267.08 110.859ZM374.769 129.996L374.369 130.912L374.371 130.913L374.769 129.996ZM357.511 116.892L356.707 117.487L356.712 117.494L357.511 116.892ZM351.374 97.9077L352.374 97.9137L352.374 97.8999L351.374 97.9077ZM354.954 82.7585L355.838 83.2253L355.838 83.2253L354.954 82.7585ZM364.798 71.2528L365.394 72.0558L365.395 72.0548L364.798 71.2528ZM378.732 65.3082L378.897 66.2946L379.732 66.1554V65.3082H378.732ZM378.732 64.4134H379.732V63.6106L378.949 63.437L378.732 64.4134ZM362.369 54.1222L361.574 54.7292L361.579 54.7361L362.369 54.1222ZM356.232 35.3935L357.232 35.3995L357.232 35.3871L356.232 35.3935ZM361.857 17.3679L362.67 17.951L362.67 17.951L361.857 17.3679ZM377.454 4.90341L377.87 5.81258L377.875 5.81033L377.454 4.90341ZM422.518 4.90341L422.094 5.80932L422.101 5.81256L422.518 4.90341ZM438.114 17.3679L437.302 17.951L437.305 17.9553L438.114 17.3679ZM437.539 54.1222L436.75 53.5074L436.75 53.5082L437.539 54.1222ZM421.367 64.4134L421.147 63.4379L420.367 63.614V64.4134H421.367ZM421.367 65.3082H420.367V66.1554L421.203 66.2946L421.367 65.3082ZM435.174 71.2528L434.569 72.0489L434.578 72.0558L435.174 71.2528ZM445.018 82.7585L444.133 83.2253L444.137 83.2316L445.018 82.7585ZM442.461 116.892L443.259 117.494L443.262 117.491L442.461 116.892ZM425.202 129.996L424.803 129.079L424.801 129.08L425.202 129.996ZM412.866 114.016L413.283 114.925L413.292 114.92L412.866 114.016ZM424.371 96.2457L425.371 96.2564L425.372 96.246L425.371 96.2355L424.371 96.2457ZM421.112 85.1875L420.271 85.7294L420.275 85.7358L420.279 85.7422L421.112 85.1875ZM412.482 77.581L412.031 78.4733L412.035 78.4754L412.482 77.581ZM387.553 77.581L388 78.4754L388 78.4754L387.553 77.581ZM378.86 85.1875L378.025 84.6379L378.023 84.6406L378.86 85.1875ZM375.792 96.2457L376.792 96.2564L376.792 96.246L376.792 96.2355L375.792 96.2457ZM378.732 106.857L377.895 107.403L377.898 107.409L378.732 106.857ZM387.17 113.952L386.744 114.857L386.748 114.858L387.17 113.952ZM410.692 54.4418L410.231 53.5547L410.226 53.5574L410.692 54.4418ZM418.043 47.6662L417.193 47.1407L417.193 47.1407L418.043 47.6662ZM420.792 37.6307L421.792 37.6419L421.792 37.6306L421.792 37.6193L420.792 37.6307ZM418.107 27.7869L417.254 28.3089L417.258 28.3146L418.107 27.7869ZM410.82 21.2031L410.368 22.0951L410.378 22.1L410.82 21.2031ZM389.151 21.2031L389.594 22.1L389.598 22.0976L389.151 21.2031ZM381.864 27.7869L381.011 27.265L381.009 27.2686L381.864 27.7869ZM379.371 37.6307L380.371 37.6419L380.372 37.6306L380.371 37.6193L379.371 37.6307ZM381.928 47.6662L381.072 48.1825L381.076 48.19L381.081 48.1973L381.928 47.6662ZM389.279 54.4418L388.808 55.3238L388.815 55.3276L388.822 55.3313L389.279 54.4418ZM400.082 133.79C390.691 133.79 382.393 132.211 375.167 129.078L374.371 130.913C381.89 134.173 390.467 135.79 400.082 135.79V133.79ZM375.169 129.079C367.973 125.941 362.367 121.673 358.309 116.29L356.712 117.494C361.007 123.191 366.906 127.658 374.369 130.912L375.169 129.079ZM358.314 116.297C354.312 110.892 352.333 104.776 352.374 97.9137L350.374 97.9016C350.33 105.188 352.442 111.727 356.707 117.487L358.314 116.297ZM352.374 97.8999C352.333 92.5584 353.491 87.6731 355.838 83.2253L354.069 82.2918C351.559 87.0485 350.33 92.2626 350.374 97.9154L352.374 97.8999ZM355.838 83.2253C358.198 78.7537 361.381 75.0339 365.394 72.0558L364.202 70.4499C359.947 73.6082 356.567 77.5588 354.069 82.2918L355.838 83.2253ZM365.395 72.0548C369.444 69.0386 373.941 67.1206 378.897 66.2946L378.568 64.3218C373.297 65.2004 368.503 67.2455 364.2 70.4509L365.395 72.0548ZM379.732 65.3082V64.4134H377.732V65.3082H379.732ZM378.949 63.437C372.44 61.9952 367.189 58.6909 363.158 53.5082L361.579 54.7361C365.901 60.292 371.559 63.8486 378.516 65.3897L378.949 63.437ZM363.163 53.5152C359.17 48.2864 357.191 42.2612 357.232 35.3995L355.232 35.3874C355.188 42.6735 357.3 49.134 361.574 54.7291L363.163 53.5152ZM357.232 35.3871C357.191 28.8576 359.005 23.057 362.67 17.951L361.045 16.7848C357.124 22.247 355.188 28.4634 355.232 35.3998L357.232 35.3871ZM362.67 17.951C366.349 12.8241 371.404 8.77437 377.87 5.81256L377.037 3.99425C370.293 7.08358 364.95 11.3435 361.045 16.7848L362.67 17.951ZM377.875 5.81033C384.328 2.81274 391.723 1.30113 400.082 1.30113V-0.698869C391.48 -0.698869 383.79 0.857701 377.033 3.99648L377.875 5.81033ZM400.082 1.30113C408.353 1.30113 415.684 2.8122 422.094 5.80929L422.941 3.99752C416.227 0.858243 408.6 -0.698869 400.082 -0.698869V1.30113ZM422.101 5.81256C428.567 8.77437 433.622 12.8241 437.302 17.951L438.927 16.7848C435.021 11.3435 429.679 7.08358 422.934 3.99425L422.101 5.81256ZM437.305 17.9553C441.012 23.063 442.867 28.8645 442.867 35.3935H444.867C444.867 28.4565 442.887 22.241 438.924 16.7805L437.305 17.9553ZM442.867 35.3935C442.867 42.252 440.828 48.2769 436.75 53.5074L438.328 54.737C442.688 49.1436 444.867 42.6826 444.867 35.3935H442.867ZM436.75 53.5082C432.715 58.6957 427.525 61.9977 421.147 63.4379L421.587 65.3888C428.42 63.8461 434.011 60.2873 438.328 54.7361L436.75 53.5082ZM420.367 64.4134V65.3082H422.367V64.4134H420.367ZM421.203 66.2946C426.158 67.1204 430.608 69.0373 434.569 72.0488L435.779 70.4568C431.558 67.2468 426.804 65.2006 421.532 64.3218L421.203 66.2946ZM434.578 72.0558C438.59 75.0339 441.773 78.7537 444.133 83.2253L445.902 82.2918C443.404 77.5588 440.025 73.6082 435.77 70.4499L434.578 72.0558ZM444.137 83.2316C446.526 87.6808 447.725 92.5667 447.725 97.9077H449.725C449.725 92.2543 448.453 87.0408 445.899 82.2854L444.137 83.2316ZM447.725 97.9077C447.725 104.769 445.705 110.886 441.66 116.293L443.262 117.491C447.569 111.733 449.725 105.194 449.725 97.9077H447.725ZM441.662 116.29C437.605 121.673 431.999 125.941 424.803 129.079L425.602 130.912C433.065 127.658 438.965 123.191 443.259 117.494L441.662 116.29ZM424.801 129.08C417.662 132.211 409.429 133.79 400.082 133.79V135.79C409.654 135.79 418.169 134.173 425.604 130.912L424.801 129.08ZM400.082 117.509C405.094 117.509 409.503 116.659 413.283 114.925L412.449 113.107C408.984 114.696 404.871 115.509 400.082 115.509V117.509ZM413.292 114.92C417.065 113.145 420.027 110.641 422.141 107.403L420.466 106.31C418.574 109.209 415.91 111.478 412.44 113.111L413.292 114.92ZM422.141 107.403C424.257 104.161 425.327 100.434 425.371 96.2564L423.372 96.2351C423.331 100.069 422.355 103.416 420.466 106.31L422.141 107.403ZM425.371 96.2355C425.327 91.8831 424.191 88.0043 421.944 84.6328L420.279 85.7422C422.293 88.7628 423.331 92.2561 423.372 96.2559L425.371 96.2355ZM421.952 84.6456C419.761 81.2467 416.744 78.5938 412.929 76.6865L412.035 78.4754C415.55 80.2329 418.286 82.651 420.271 85.7294L421.952 84.6456ZM412.934 76.6886C409.153 74.7759 404.861 73.8324 400.082 73.8324V75.8324C404.592 75.8324 408.568 76.7213 412.031 78.4733L412.934 76.6886ZM400.082 73.8324C395.261 73.8324 390.928 74.7753 387.106 76.6865L388 78.4754C391.508 76.7218 395.527 75.8324 400.082 75.8324V73.8324ZM387.106 76.6865C383.293 78.593 380.258 81.2437 378.025 84.6379L379.696 85.7371C381.724 82.6541 384.484 80.2337 388 78.4754L387.106 76.6865ZM378.023 84.6406C375.817 88.0176 374.748 91.9015 374.792 96.2559L376.792 96.2355C376.751 92.2377 377.727 88.7494 379.697 85.7344L378.023 84.6406ZM374.792 96.2351C374.747 100.419 375.774 104.154 377.895 107.403L379.57 106.31C377.685 103.423 376.751 100.084 376.792 96.2564L374.792 96.2351ZM377.898 107.409C380.013 110.602 382.974 113.082 386.744 114.857L387.596 113.047C384.122 111.412 381.458 109.162 379.566 106.305L377.898 107.409ZM386.748 114.858C390.571 116.637 395.025 117.509 400.082 117.509V115.509C395.252 115.509 391.098 114.676 387.591 113.045L386.748 114.858ZM400.082 57.8707C404.225 57.8707 407.926 57.0324 411.159 55.3261L410.226 53.5574C407.322 55.0898 403.95 55.8707 400.082 55.8707V57.8707ZM411.154 55.3288C414.42 53.6288 417.007 51.2475 418.894 48.1917L417.193 47.1407C415.5 49.8803 413.187 52.0161 410.231 53.5547L411.154 55.3288ZM418.894 48.1917C420.79 45.1222 421.747 41.5951 421.792 37.6419L419.792 37.6194C419.751 41.2515 418.876 44.4148 417.193 47.1407L418.894 48.1917ZM421.792 37.6193C421.747 33.7115 420.813 30.2467 418.957 27.2592L417.258 28.3146C418.896 30.9522 419.751 34.0499 419.792 37.642L421.792 37.6193ZM418.96 27.265C417.111 24.2425 414.537 21.9208 411.263 20.3063L410.378 22.1C413.326 23.5536 415.61 25.6211 417.254 28.3089L418.96 27.265ZM411.272 20.3112C408.001 18.6528 404.262 17.8381 400.082 17.8381V19.8381C403.998 19.8381 407.418 20.6 410.368 22.0951L411.272 20.3112ZM400.082 17.8381C395.82 17.8381 392.018 18.6515 388.704 20.3087L389.598 22.0976C392.591 20.6013 396.077 19.8381 400.082 19.8381V17.8381ZM388.709 20.3063C385.435 21.9208 382.861 24.2425 381.011 27.265L382.717 28.3089C384.362 25.6211 386.646 23.5536 389.594 22.1L388.709 20.3063ZM381.009 27.2686C379.195 30.2622 378.327 33.7322 378.372 37.642L380.371 37.6193C380.331 34.0291 381.125 30.9367 382.72 28.3052L381.009 27.2686ZM378.372 37.6194C378.327 41.5747 379.218 45.107 381.072 48.1825L382.785 47.1498C381.145 44.4299 380.331 41.2718 380.371 37.6419L378.372 37.6194ZM381.081 48.1973C382.968 51.2072 385.551 53.5837 388.808 55.3238L389.75 53.5597C386.786 51.976 384.468 49.8354 382.776 47.1351L381.081 48.1973ZM388.822 55.3313C392.136 57.0329 395.897 57.8707 400.082 57.8707V55.8707C396.17 55.8707 392.729 55.0892 389.736 53.5522L388.822 55.3313ZM534.938 34.8182H535.938V33.8182H534.938V34.8182ZM534.938 53.8026V54.8026H535.938V53.8026H534.938ZM492.623 53.8026V52.8026H491.623V53.8026H492.623ZM492.623 133V134H493.623V133H492.623ZM469.995 133H468.995V134H469.995V133ZM469.995 34.8182V33.8182H468.995V34.8182H469.995ZM533.938 34.8182V53.8026H535.938V34.8182H533.938ZM534.938 52.8026H492.623V54.8026H534.938V52.8026ZM491.623 53.8026V133H493.623V53.8026H491.623ZM492.623 132H469.995V134H492.623V132ZM470.995 133V34.8182H468.995V133H470.995ZM469.995 35.8182H534.938V33.8182H469.995V35.8182Z" fill="black"/>
</svg>
