<svg width="76" height="83" viewBox="0 0 76 83" fill="none" xmlns="http://www.w3.org/2000/svg">
<path d="M2.05593 4.90909H3.61559V15.2131H3.74343L10.9025 4.90909H12.4366V18H10.8514V7.72159H10.7235L3.59002 18H2.05593V4.90909ZM19.3928 18.2045C18.4723 18.2045 17.6797 17.9872 17.0149 17.5526C16.3501 17.1179 15.8388 16.5192 15.4808 15.7564C15.1229 14.9936 14.9439 14.1222 14.9439 13.142C14.9439 12.1449 15.1271 11.2649 15.4936 10.5021C15.8643 9.73509 16.38 9.13636 17.0405 8.70597C17.7053 8.27131 18.4808 8.05398 19.3672 8.05398C20.0575 8.05398 20.6797 8.18182 21.2337 8.4375C21.7876 8.69318 22.2415 9.05114 22.5952 9.51136C22.9489 9.97159 23.1683 10.5085 23.2536 11.1222H21.745C21.63 10.6747 21.3743 10.2784 20.978 9.93324C20.5859 9.58381 20.0575 9.40909 19.3928 9.40909C18.8047 9.40909 18.2891 9.5625 17.8459 9.86932C17.407 10.1719 17.0639 10.6001 16.8168 11.1541C16.5739 11.7038 16.4524 12.3494 16.4524 13.0909C16.4524 13.8494 16.5717 14.5099 16.8104 15.0724C17.0533 15.6349 17.3942 16.0717 17.8331 16.3828C18.2763 16.6939 18.7962 16.8494 19.3928 16.8494C19.7848 16.8494 20.1406 16.7812 20.4602 16.6449C20.7798 16.5085 21.0504 16.3125 21.272 16.0568C21.4936 15.8011 21.6513 15.4943 21.745 15.1364H23.2536C23.1683 15.7159 22.9574 16.2379 22.6207 16.7024C22.2884 17.1626 21.8473 17.5291 21.2976 17.8018C20.7521 18.0703 20.1172 18.2045 19.3928 18.2045ZM24.6854 9.58807V8.18182H32.6626V9.58807H29.4411V18H27.9325V9.58807H24.6854ZM38.342 18.2045C37.4556 18.2045 36.6779 17.9936 36.0089 17.5717C35.3441 17.1499 34.8242 16.5597 34.4492 15.8011C34.0785 15.0426 33.8931 14.1562 33.8931 13.142C33.8931 12.1193 34.0785 11.2266 34.4492 10.4638C34.8242 9.70099 35.3441 9.10866 36.0089 8.68679C36.6779 8.26491 37.4556 8.05398 38.342 8.05398C39.2283 8.05398 40.0039 8.26491 40.6687 8.68679C41.3377 9.10866 41.8576 9.70099 42.2283 10.4638C42.6033 11.2266 42.7908 12.1193 42.7908 13.142C42.7908 14.1562 42.6033 15.0426 42.2283 15.8011C41.8576 16.5597 41.3377 17.1499 40.6687 17.5717C40.0039 17.9936 39.2283 18.2045 38.342 18.2045ZM38.342 16.8494C39.0153 16.8494 39.5692 16.6768 40.0039 16.3317C40.4386 15.9865 40.7603 15.5327 40.9691 14.9702C41.1779 14.4077 41.2823 13.7983 41.2823 13.142C41.2823 12.4858 41.1779 11.8743 40.9691 11.3075C40.7603 10.7408 40.4386 10.2827 40.0039 9.93324C39.5692 9.58381 39.0153 9.40909 38.342 9.40909C37.6687 9.40909 37.1147 9.58381 36.68 9.93324C36.2454 10.2827 35.9237 10.7408 35.7148 11.3075C35.506 11.8743 35.4016 12.4858 35.4016 13.142C35.4016 13.7983 35.506 14.4077 35.7148 14.9702C35.9237 15.5327 36.2454 15.9865 36.68 16.3317C37.1147 16.6768 37.6687 16.8494 38.342 16.8494ZM45.0936 21.6818V8.18182H46.551V9.74148H46.7299C46.8407 9.57102 46.9941 9.35369 47.1902 9.08949C47.3904 8.82102 47.676 8.58239 48.0467 8.37358C48.4217 8.16051 48.9288 8.05398 49.568 8.05398C50.3947 8.05398 51.1234 8.26065 51.7541 8.67401C52.3848 9.08736 52.877 9.6733 53.2306 10.4318C53.5843 11.1903 53.7612 12.0852 53.7612 13.1165C53.7612 14.1562 53.5843 15.0575 53.2306 15.8203C52.877 16.5788 52.3869 17.1669 51.7605 17.5845C51.1341 17.9979 50.4118 18.2045 49.5936 18.2045C48.9629 18.2045 48.4579 18.1001 48.0787 17.8913C47.6994 17.6783 47.4075 17.4375 47.2029 17.169C46.9984 16.8963 46.8407 16.6705 46.7299 16.4915H46.6021V21.6818H45.0936ZM46.5765 13.0909C46.5765 13.8324 46.6852 14.4865 46.9025 15.0533C47.1199 15.6158 47.4373 16.0568 47.8549 16.3764C48.2725 16.6918 48.7839 16.8494 49.389 16.8494C50.0197 16.8494 50.546 16.6832 50.9679 16.3509C51.394 16.0142 51.7136 15.5625 51.9267 14.9957C52.144 14.4247 52.2527 13.7898 52.2527 13.0909C52.2527 12.4006 52.1461 11.7784 51.9331 11.2244C51.7243 10.6662 51.4068 10.2251 50.9806 9.90128C50.5588 9.57315 50.0282 9.40909 49.389 9.40909C48.7754 9.40909 48.2598 9.56463 47.8422 9.87571C47.4245 10.1825 47.1092 10.6129 46.8961 11.1669C46.6831 11.7166 46.5765 12.358 46.5765 13.0909ZM57.5708 15.7756L62.301 8.18182H64.0396V18H62.5311V10.4062L57.8265 18H56.0623V8.18182H57.5708V15.7756ZM72.7088 18V9.5625H70.1009C69.5128 9.5625 69.0504 9.69886 68.7138 9.97159C68.3771 10.2443 68.2088 10.6193 68.2088 11.0966C68.2088 11.5653 68.3601 11.9339 68.6626 12.2024C68.9695 12.4709 69.3892 12.6051 69.9219 12.6051H73.0923V14.0114H69.9219C69.2571 14.0114 68.6839 13.8942 68.2024 13.6598C67.7209 13.4254 67.3501 13.0909 67.0902 12.6562C66.8303 12.2173 66.7003 11.6974 66.7003 11.0966C66.7003 10.4915 66.8366 9.97159 67.1094 9.53693C67.3821 9.10227 67.772 8.76776 68.2791 8.53338C68.7905 8.29901 69.3977 8.18182 70.1009 8.18182H74.1406V18H72.7088ZM66.1634 18L68.9503 13.1165H70.5866L67.7997 18H66.1634Z" fill="white"/>
<path d="M48.504 64.5C48.504 69.5304 47.2353 74.0608 45.2105 77.3175C43.1811 80.5816 40.4423 82.5 37.502 82.5C34.5617 82.5 31.8229 80.5816 29.7935 77.3175C27.7687 74.0608 26.5 69.5304 26.5 64.5C26.5 59.4696 27.7687 54.9392 29.7935 51.6825C31.8229 48.4184 34.5617 46.5 37.502 46.5C40.4423 46.5 43.1811 48.4184 45.2105 51.6825C47.2353 54.9392 48.504 59.4696 48.504 64.5Z" stroke="white"/>
<path d="M37.502 53.1572V62.5354" stroke="white" stroke-linecap="round"/>
</svg>
