<svg width="149" height="131" viewBox="0 0 149 131" fill="none" xmlns="http://www.w3.org/2000/svg">
<path d="M24.6264 0.0909042H25.6264V-0.909096H24.6264V0.0909042ZM24.6264 131V132H25.6264V131H24.6264ZM0.911932 131H-0.088068V132H0.911932V131ZM0.911932 0.0909042V-0.909096H-0.088068V0.0909042H0.911932ZM23.6264 0.0909042V131H25.6264V0.0909042H23.6264ZM24.6264 130H0.911932V132H24.6264V130ZM1.91193 131V0.0909042H-0.088068V131H1.91193ZM0.911932 1.0909H24.6264V-0.909096H0.911932V1.0909ZM44.5536 19.9702H43.5536V20.9702H44.5536V19.9702ZM44.5536 0.0909042V-0.909096H43.5536V0.0909042H44.5536ZM149 0.0909042H150V-0.909096H149V0.0909042ZM149 19.9702V20.9702H150V19.9702H149ZM108.538 19.9702V18.9702H107.538V19.9702H108.538ZM108.538 131V132H109.538V131H108.538ZM85.0153 131H84.0153V132H85.0153V131ZM85.0153 19.9702H86.0153V18.9702H85.0153V19.9702ZM45.5536 19.9702V0.0909042H43.5536V19.9702H45.5536ZM44.5536 1.0909H149V-0.909096H44.5536V1.0909ZM148 0.0909042V19.9702H150V0.0909042H148ZM149 18.9702H108.538V20.9702H149V18.9702ZM107.538 19.9702V131H109.538V19.9702H107.538ZM108.538 130H85.0153V132H108.538V130ZM86.0153 131V19.9702H84.0153V131H86.0153ZM85.0153 18.9702H44.5536V20.9702H85.0153V18.9702Z" fill="black"/>
</svg>
